<?xml version="1.0" encoding="UTF-8"?>
<svg width="25px" height="26px" viewBox="0 0 25 26" version="1.1" xmlns="http://www.w3.org/2000/svg" xmlns:xlink="http://www.w3.org/1999/xlink">
    <title>facebook</title>
    <g id="HOME" stroke="none" stroke-width="1" fill="none" fill-rule="evenodd">
        <g id="facebook" fill="#D1D3D4">
            <path d="M12.4719729,25.0254627 L12.4948729,25.0255627 L12.4869729,25.0255627 L12.4719729,25.0254627 Z M12.564199,25.0255627 L12.556299,25.0255627 L12.579199,25.0254627 L12.564199,25.0255627 Z M12.4333287,25.0252674 L12.4580287,25.0253674 L12.4438287,25.0253674 L12.4333287,25.0252674 L12.4333287,25.0252674 Z M12.6073432,25.0253674 L12.5931432,25.0253674 L12.6178432,25.0252674 L12.6073432,25.0253674 Z M12.3986104,25.0249744 L12.4151104,25.0250744 L12.4019104,25.0249744 L12.3986104,25.0249744 Z M12.6492615,25.0249744 L12.6360615,25.0250744 L12.6525615,25.0249744 L12.6492615,25.0249744 Z M12.6843229,25.0245861 L12.6785229,25.0246861 L12.7008229,25.0243861 L12.6843229,25.0245861 Z M12.350349,25.0243861 L12.372649,25.0246861 L12.366849,25.0245861 L12.350349,25.0243861 L12.350349,25.0243861 Z M12.7272158,25.0239746 L12.7137158,25.0241746 L12.7412158,25.0237746 L12.7272158,25.0239746 Z M12.3099561,25.0237746 L12.3374561,25.0241746 L12.3239561,25.0239746 L12.3099561,25.0237746 L12.3099561,25.0237746 Z M12.7703926,25.0232654 L12.7521926,25.0235654 L12.7775926,25.0230654 L12.7703926,25.0232654 Z M12.2735793,25.0230654 L12.2989793,25.0235654 L12.2807793,25.0232654 L12.2735793,25.0230654 Z M12.2285693,25.0221377 L12.2510693,25.0226377 L12.2470693,25.0225377 L12.2285693,25.0221377 Z M12.8041025,25.0225377 L12.8001025,25.0226377 L12.8226025,25.0221377 L12.8041025,25.0225377 Z M12.1862834,25.0210355 L12.2171834,25.0218355 L12.2046834,25.0215355 L12.1862834,25.0210355 Z M12.8464885,25.0215355 L12.8339885,25.0218355 L12.8648885,25.0210355 L12.8464885,25.0215355 Z M12.890384,25.0203334 L12.870284,25.0209334 L12.901884,25.0200334 L12.890384,25.0203334 L12.890384,25.0203334 Z M12.1492879,25.0200334 L12.1808879,25.0209334 L12.1607879,25.0203334 L12.1492879,25.0200334 L12.1492879,25.0200334 Z M12.121091,25.0191639 L12.143591,25.0198639 L12.122391,25.0191639 L12.102991,25.0185639 L12.121091,25.0191639 L12.121091,25.0191639 Z M12.9287809,25.0191639 L12.9075809,25.0198639 L12.9300809,25.0191639 L12.9481809,25.0185639 L12.9287809,25.0191639 Z M12.9653123,25.0179734 L12.9541123,25.0183734 L12.9886123,25.0171734 L12.9653123,25.0179734 Z M12.0625596,25.0171734 L12.0970596,25.0183734 L12.0858596,25.0179734 L12.0625596,25.0171734 Z M12.0255523,25.0157807 L12.0617523,25.0170807 L12.0416523,25.0163807 L12.0255523,25.0157807 Z M13.0095195,25.0163807 L12.9894195,25.0170807 L13.0256195,25.0157807 L13.0095195,25.0163807 Z M11.9898684,25.0142646 L12.0252684,25.0157646 L11.9975684,25.0146646 L11.9898684,25.0142646 L11.9898684,25.0142646 Z M13.0536035,25.0146646 L13.0259035,25.0157646 L13.0613035,25.0142646 L13.0536035,25.0146646 L13.0536035,25.0146646 Z M11.9389102,25.0120162 L11.9769102,25.0137162 L11.9676102,25.0134162 L11.9389102,25.0120162 Z M13.0835617,25.0134162 L13.0742617,25.0137162 L13.1122617,25.0120162 L13.0835617,25.0134162 Z M11.902468,25.0103305 L11.941868,25.0121305 L11.923268,25.0113305 L11.902468,25.0103305 Z M13.1279039,25.0113305 L13.1093039,25.0121305 L13.1487039,25.0103305 L13.1279039,25.0113305 Z M11.8668443,25.0084727 L11.9065443,25.0104727 L11.8786443,25.0091727 L11.8668443,25.0084727 Z M13.1725275,25.0091727 L13.1446275,25.0104727 L13.1843275,25.0084727 L13.1725275,25.0091727 Z M13.2089893,25.0072266 L13.1727893,25.0091266 L13.2048893,25.0074266 L13.2426893,25.0053266 L13.2089893,25.0072266 Z M11.8462826,25.0074266 L11.8783826,25.0091266 L11.8421826,25.0072266 L11.8084826,25.0053266 L11.8462826,25.0074266 Z M13.245993,25.0051084 L13.229993,25.0060084 L13.270593,25.0037084 L13.245993,25.0051084 Z M11.7805789,25.0037084 L11.8211789,25.0060084 L11.8051789,25.0051084 L11.7805789,25.0037084 Z M11.7453506,25.0015832 L11.7858506,25.0039832 L11.7605506,25.0025832 L11.7453506,25.0015832 L11.7453506,25.0015832 Z M13.2906213,25.0025832 L13.2653213,25.0039832 L13.3058213,25.0015832 L13.2906213,25.0025832 Z M11.7208422,25.0000209 L11.7573422,25.0023209 L11.7233422,25.0002209 L11.6891422,24.9980209 L11.7208422,25.0000209 Z M13.3278297,25.0002209 L13.2938297,25.0023209 L13.3303297,25.0000209 L13.3620297,24.9980209 L13.3278297,25.0002209 L13.3278297,25.0002209 Z M13.3639682,24.9978633 L13.3517682,24.9986633 L13.3904682,24.9960633 L13.3639682,24.9978633 L13.3639682,24.9978633 Z M11.6607037,24.9960633 L11.6994037,24.9986633 L11.6872037,24.9978633 L11.6607037,24.9960633 L11.6607037,24.9960633 Z M11.6256777,24.9935963 L11.6636777,24.9962963 L11.6428777,24.9948963 L11.6256777,24.9935963 Z M13.4082941,24.9948963 L13.3874941,24.9962963 L13.4254941,24.9935963 L13.4082941,24.9948963 L13.4082941,24.9948963 Z M11.5913635,24.9911572 L11.6262635,24.9936572 L11.5991635,24.9917572 L11.5913635,24.9911572 Z M13.4520084,24.9917572 L13.4249084,24.9936572 L13.4598084,24.9911572 L13.4520084,24.9917572 Z M11.5452469,24.9876439 L11.5758469,24.9899439 L11.5684469,24.9894439 L11.5452469,24.9876439 L11.5452469,24.9876439 Z M13.482725,24.9894439 L13.475325,24.9899439 L13.505925,24.9876439 L13.482725,24.9894439 L13.482725,24.9894439 Z M13.5258811,24.9861119 L13.5112811,24.9872119 L13.5423811,24.9847119 L13.5258811,24.9861119 L13.5258811,24.9861119 Z M11.5087908,24.9847119 L11.5398908,24.9872119 L11.5252908,24.9861119 L11.5087908,24.9847119 L11.5087908,24.9847119 Z M11.474593,24.9819078 L11.500993,24.9841078 L11.482393,24.9826078 L11.474593,24.9819078 Z M13.5687789,24.9826078 L13.5501789,24.9841078 L13.5765789,24.9819078 L13.5687789,24.9826078 L13.5687789,24.9826078 Z M13.6441705,24.9761277 L13.6369705,24.9767277 L13.6550705,24.9751277 L13.6441705,24.9761277 L13.6441705,24.9761277 Z M11.3961014,24.9751277 L11.4142014,24.9767277 L11.4070014,24.9761277 L11.3961014,24.9751277 L11.3961014,24.9751277 Z M11.3606572,24.9718842 L11.3741572,24.9731842 L11.3657572,24.9723842 L11.3606572,24.9718842 Z M13.6854146,24.9723842 L13.6770146,24.9731842 L13.6905146,24.9718842 L13.6854146,24.9723842 Z M10.546875,24.847998 C4.57426758,23.9092285 -8.32667268e-15,18.7345703 -8.32667268e-15,12.5 C-8.32667268e-15,5.60107422 5.60107422,-8.32667268e-15 12.5,-8.32667268e-15 C19.3989258,-8.32667268e-15 25,5.60107422 25,12.5 C25,18.7345703 20.4257324,23.9092285 14.453125,24.847998 L14.453125,16.1132812 L17.3657227,16.1132812 L17.9199219,12.5 L14.453125,12.5 L14.453125,10.1552246 C14.453125,9.16669922 14.9374023,8.203125 16.4901855,8.203125 L18.0664062,8.203125 L18.0664062,5.12695312 C18.0664062,5.12695312 16.6359375,4.8828125 15.2683105,4.8828125 C12.4130371,4.8828125 10.546875,6.61328125 10.546875,9.74609375 L10.546875,12.5 L7.37304687,12.5 L7.37304687,16.1132812 L10.546875,16.1132812 L10.546875,24.847998 Z" id="Shape"></path>
        </g>
    </g>
</svg>