<?xml version="1.0" encoding="UTF-8"?>
<svg width="25px" height="25px" viewBox="0 0 25 25" version="1.1" xmlns="http://www.w3.org/2000/svg" xmlns:xlink="http://www.w3.org/1999/xlink">
    <title>linkedin</title>
    <g id="HOME" stroke="none" stroke-width="1" fill="none" fill-rule="evenodd">
        <g id="linkedin" fill="#D1D3D4">
            <path d="M12.5,0 C19.3989258,0 25,5.60107422 25,12.5 C25,19.3989258 19.3989258,25 12.5,25 C5.60107422,25 0,19.3989258 0,12.5 C0,5.60107422 5.60107422,0 12.5,0 Z M8.59194336,19.5249512 L8.59194336,9.76318359 L5.34663086,9.76318359 L5.34663086,19.5249512 L8.59194336,19.5249512 Z M20.2921387,19.5249512 L20.2921387,13.927002 C20.2921387,10.9285156 18.6912109,9.53364258 16.5563477,9.53364258 C14.8349121,9.53364258 14.0638184,10.4803711 13.6320801,11.1453125 L13.6320801,9.76318359 L10.3875977,9.76318359 C10.4306152,10.6790527 10.3875977,19.5249512 10.3875977,19.5249512 L13.6320313,19.5249512 L13.6320313,14.073291 C13.6320313,13.7814941 13.6530273,13.4897949 13.7390137,13.28125 C13.9731445,12.6984863 14.5074219,12.0947754 15.4038086,12.0947754 C16.5773438,12.0947754 17.0475098,12.9902832 17.0475098,14.302002 L17.0475098,19.5249512 L20.2921387,19.5249512 L20.2921387,19.5249512 Z M6.99121094,5.05615234 C5.88085937,5.05615234 5.15541992,5.78613281 5.15541992,6.74291992 C5.15541992,7.67954102 5.85878906,8.42963867 6.94824219,8.42963867 L6.96918945,8.42963867 C8.10078125,8.42963867 8.80512695,7.67954102 8.80512695,6.74291992 C8.78413086,5.78613281 8.10083008,5.05615234 6.99121094,5.05615234 Z" id="Shape"></path>
        </g>
    </g>
</svg>