<?xml version="1.0" encoding="UTF-8"?>
<svg width="25px" height="25px" viewBox="0 0 25 25" version="1.1" xmlns="http://www.w3.org/2000/svg" xmlns:xlink="http://www.w3.org/1999/xlink">
    <title>twitter</title>
    <g id="HOME" stroke="none" stroke-width="1" fill="none" fill-rule="evenodd">
        <g id="twitter" fill="#D1D3D4">
            <path d="M12.5,0 C19.3989258,0 25,5.60107422 25,12.5 C25,19.3989258 19.3989258,25 12.5,25 C5.60107422,25 0,19.3989258 0,12.5 C0,5.60107422 5.60107422,0 12.5,0 Z M10.298291,19.1483398 C15.8296875,19.1483398 18.8541504,14.5648438 18.8541504,10.5925293 C18.8541504,10.4615723 18.8541504,10.3306152 18.8479004,10.2058594 C19.434082,9.78183594 19.945459,9.25175781 20.3507813,8.646875 C19.814502,8.88383789 19.2345215,9.04599609 18.6233887,9.12080078 C19.2470215,8.74663086 19.7209473,8.16044922 19.945459,7.45581055 C19.3654785,7.7987793 18.7231934,8.04819336 18.037207,8.18540039 C17.4884277,7.59921875 16.7089355,7.23754883 15.8421387,7.23754883 C14.1833496,7.23754883 12.836377,8.58452148 12.836377,10.2433105 C12.836377,10.4802734 12.8613281,10.7109863 12.9174316,10.929248 C10.4167969,10.804541 8.20297852,9.60722656 6.71884766,7.7862793 C6.46313477,8.22905273 6.31347656,8.74663086 6.31347656,9.29541016 C6.31347656,10.3368164 6.84355469,11.2597656 7.65424805,11.7960449 C7.16157227,11.7835938 6.70009766,11.6463867 6.29477539,11.4219238 L6.29477539,11.4593262 C6.29477539,12.9185547 7.32993164,14.1283203 8.70810547,14.4089844 C8.45869141,14.4775391 8.19052734,14.5149902 7.91616211,14.5149902 C7.72280273,14.5149902 7.53574219,14.4962891 7.34868164,14.4588379 C7.72905273,15.6561523 8.8390625,16.522998 10.1548828,16.5479004 C9.12592773,17.3523926 7.82885742,17.8325684 6.41948242,17.8325684 C6.17626953,17.8325684 5.93930664,17.8200684 5.70234375,17.788916 C7.01816406,18.6494629 8.60209961,19.1483398 10.298291,19.1483398 Z" id="Shape"></path>
        </g>
    </g>
</svg>