<?xml version="1.0" encoding="utf-8"?>
<!-- Generator: Adobe Illustrator 26.0.3, SVG Export Plug-In . SVG Version: 6.00 Build 0)  -->
<svg version="1.1" id="Layer_1" xmlns="http://www.w3.org/2000/svg" xmlns:xlink="http://www.w3.org/1999/xlink" x="0px" y="0px"
	 viewBox="0 0 191 197" style="enable-background:new 0 0 191 197;" xml:space="preserve">
<style type="text/css">
	.st0{filter:url(#Adobe_OpacityMaskFilter);}
	.st1{fill-rule:evenodd;clip-rule:evenodd;fill:#FFFFFF;}
	.st2{mask:url(#mask-2_00000090984594533664444850000013708148310757414552_);fill-rule:evenodd;clip-rule:evenodd;fill:#FFFFFF;}
	.st3{fill-rule:evenodd;clip-rule:evenodd;fill:#C43018;}
	.st4{filter:url(#Adobe_OpacityMaskFilter_00000086653977380188092730000008146676405399136418_);}
	.st5{mask:url(#mask-4_00000082347652855178071450000002123166891147920544_);fill-rule:evenodd;clip-rule:evenodd;fill:#FFFFFF;}
	.st6{filter:url(#Adobe_OpacityMaskFilter_00000088101376548232376490000006080031098129290155_);}
	.st7{mask:url(#mask-6_00000085958116268080813440000013958783791714415751_);fill-rule:evenodd;clip-rule:evenodd;fill:#FFFFFF;}
</style>
<g id="Page-1">
	<g id="Desktop-HD" transform="translate(-582.000000, -357.000000)">
		<g id="Group-42" transform="translate(582.000000, 357.000000)">
			<g id="Group-3" transform="translate(15.000000, 86.702000)">
				<g id="Clip-2">
				</g>
				<defs>
					<filter id="Adobe_OpacityMaskFilter" filterUnits="userSpaceOnUse" x="0.6" y="0.3" width="161" height="109.7">
						<feColorMatrix  type="matrix" values="1 0 0 0 0  0 1 0 0 0  0 0 1 0 0  0 0 0 1 0"/>
					</filter>
				</defs>
				
					<mask maskUnits="userSpaceOnUse" x="0.6" y="0.3" width="161" height="109.7" id="mask-2_00000090984594533664444850000013708148310757414552_">
					<g class="st0">
						<polygon id="path-1_00000048481765739908550660000013243015070236328887_" class="st1" points="0.6,0.3 161.6,0.3 161.6,110 
							0.6,110 						"/>
					</g>
				</mask>
				<path id="Fill-1" class="st2" d="M139.7,29.1c-0.3-0.1-0.6-0.1-0.9-0.1c0.1-6,0.6-17.3,1.8-21.5c0.5-1.6,1.2-2.1,1.3-2.1
					c0.3,0,2.1,1.4,2.7,7c-0.9,2.2-1.6,4.8-2.1,7.9c-0.2,1-0.3,2.1-0.5,3.3c-0.3,1.9-0.6,3.9-1,6.1
					C140.6,29.4,140.2,29.2,139.7,29.1L139.7,29.1z M124.3,42.2c-1.2-7.4-1.2-14.9,0.6-16.4c0.4-0.3,1.1-0.1,1.8,0.1
					c-0.2,5.6,0.1,11.1,0.1,12.7c-0.3,0.4-0.6,0.9-0.9,1.3C125.5,40.7,124.9,41.5,124.3,42.2L124.3,42.2z M132.7,16.6
					c0.3-1.3,0.6-2.1,0.9-2.6c0.1,0.2,0.3,0.4,0.5,0.7l0.5-0.3c-0.5,6.1-0.7,13.2-0.8,16.3c-0.7,0.5-1.3,1.1-2,1.8
					C131.6,27.5,131.7,20.4,132.7,16.6L132.7,16.6z M35.3,38.6c0.1-1.5,0.3-7.1,0.1-12.7c0.6-0.2,1.4-0.4,1.8-0.1
					c1.8,1.5,1.8,9,0.6,16.4c-0.6-0.7-1.1-1.5-1.6-2.3C35.9,39.5,35.6,39,35.3,38.6L35.3,38.6z M20.2,23.5c-0.2-1.2-0.4-2.3-0.5-3.3
					c-0.5-3.1-1.3-5.8-2.1-7.9c0.6-5.6,2.4-6.9,2.7-7c0.2,0,0.9,0.5,1.3,2.1c1.2,4.2,1.7,15.5,1.8,21.5c-0.3,0-0.6,0-0.9,0.1
					c-0.5,0.1-0.9,0.3-1.3,0.6C20.8,27.4,20.5,25.4,20.2,23.5L20.2,23.5z M28.2,14.8c0.2-0.3,0.3-0.6,0.5-0.7
					c0.2,0.5,0.5,1.3,0.9,2.6c1,3.8,1.1,10.9,1,16.1c-0.7-0.7-1.4-1.3-2-1.8c-0.1-3.1-0.2-10.2-0.8-16.3L28.2,14.8z M158.6,1.5
					c-2.6-1.4-5.5,0.3-6.5,0.9c-0.9,0.5-2.3,1.6-3.8,3.5c-1.3-3.3-3.4-5.3-5.9-5.5c-2.9-0.3-5.5,2-6.6,5.7c-0.2,0.8-0.4,1.8-0.6,2.9
					c-0.8-0.4-1.6-0.5-2.3-0.4c-3.1,0.4-4.4,4.1-5.1,6.8c-0.4,1.5-0.7,3.4-0.8,5.4c-2.5-0.5-4.2,0.3-5.3,1.2
					c-5.2,4.4-2.9,18.9-1.7,24.9c-5.6,5.2-13.7,9.9-25.6,15.1c-7.2,3.1-11.2,6.6-13.4,9.7c-2.2-3.1-6.2-6.6-13.4-9.7
					c-11.9-5.2-20-9.9-25.6-15.1c1.2-6,3.6-20.5-1.7-24.9c-1.1-0.9-2.8-1.7-5.3-1.2c-0.2-2.1-0.4-3.9-0.8-5.4
					c-0.7-2.7-2-6.4-5.1-6.8c-0.6-0.1-1.4,0-2.3,0.4c-0.2-1.1-0.4-2.1-0.6-2.9c-1.1-3.8-3.7-6-6.6-5.7c-2.5,0.2-4.6,2.2-5.9,5.5
					C12.4,4,11,2.9,10.1,2.4C9.1,1.8,6.3,0.1,3.6,1.5c-2.5,1.4-2.9,4.6-3,6.9c-0.2,5.5,4.1,33.1,11.9,51.3
					c7.3,17.1,22.2,24.8,30.2,29c0.9,0.5,1.7,0.9,2.4,1.3c5.7,3.1,5.5,8.2,5.5,8.4l0,9.1c0,1.4,1.1,2.5,2.5,2.5l0,0
					c1.4,0,2.5-1.1,2.5-2.5v-8.9c0-1,0-8.6-8.1-13c-0.7-0.4-1.6-0.8-2.5-1.3c-8-4.2-21.3-11.1-27.9-26.5C9.3,39.7,5.4,12.8,5.6,8.6
					C5.7,7,5.9,6.3,6,6C6.3,6,6.7,6.2,7.5,6.7c0.9,0.5,5.4,3.7,7.2,14.3c0.2,1,0.3,2.1,0.5,3.2c2,13.1,5.4,35,25,45.2l2.3-4.4
					c-11.8-6.2-17-17.5-19.8-28c0.3-2.6,0.9-3.2,0.9-3.2c0.5,0,3.5,1.3,8.4,8.8c6,9.1,15.8,16,33.7,23.8
					c10.7,4.7,12.5,10.4,12.8,12.3c0,0.3,0,0.6,0,0.8l0,0.2v21.8c0,1.4,1.1,2.5,2.5,2.5c0,0,0,0,0.1,0c0,0,0,0,0.1,0
					c1.4,0,2.5-1.1,2.5-2.5V79.7l0-0.2c0-0.3,0-0.6,0-0.9c0.3-2,2.2-7.7,12.8-12.1c18-7.5,27.7-14.7,33.7-23.8
					c4.9-7.4,7.9-8.8,8.4-8.8c0,0,0.6,0.6,0.9,3.2c-2.7,10.5-8,21.8-19.8,28l2.3,4.4c19.7-10.3,23-32.2,25-45.2
					c0.2-1.2,0.3-2.2,0.5-3.2c1.8-10.6,6.3-13.8,7.2-14.3c0.8-0.5,1.3-0.6,1.5-0.7c0.1,0.3,0.4,1,0.4,2.6c0.2,4.2-3.8,31-11.5,49.1
					c-6.6,15.4-19.9,22.4-27.9,26.5c-0.9,0.5-1.7,0.9-2.5,1.3c-8.1,4.4-8.2,12-8.1,13v8.9c0,1.4,1.1,2.5,2.5,2.5
					c1.4,0,2.5-1.1,2.5-2.5l0-9.1c0-0.2-0.2-5.3,5.5-8.4c0.7-0.4,1.5-0.8,2.4-1.3c8-4.2,22.9-11.9,30.2-29
					c7.8-18.2,12.1-45.8,11.9-51.3C161.5,6.1,161.1,2.8,158.6,1.5L158.6,1.5z"/>
			</g>
			<path id="Fill-4" class="st3" d="M80.9,78.4c3.6,0,6.8,1.5,9.9,4.4c0.9,0.9,1.7,1.9,2.5,3.2c0.1,0.1,0.1,0.2,0.2,0.3l2.6,3.9
				l2.7-4.2c1.7-2.7,3.8-4.7,6.4-6c2.3-1.2,4.7-1.6,7.3-1.4c3.5,0.3,6.3,1.6,8.6,3.9c1.9,2,3.1,4.4,3.5,7.3c0.2,1.5,0.2,3.1,0.1,4.7
				c-0.1,2.1-0.4,4-1,5.7c-0.8,2.6-2.1,5-4,7.3c-2.1,2.6-4.6,4.9-6.7,6.7c-1.7,1.5-3.4,3-5.1,4.4c-2.1,1.8-4.1,3.6-6.2,5.4
				c-1.8,1.6-3.5,3.2-5.3,4.8c-0.2,0.2-0.3,0.3-0.5,0.5l-0.1-0.1c-4-3.7-8.2-7.4-12.2-10.9l-2.3-2c-2.7-2.3-5.3-4.7-7.6-7.2
				c-2.3-2.5-3.8-4.7-4.8-7.1c-0.7-1.7-1.2-3.5-1.4-5.6c-0.2-1.8-0.3-3.6-0.3-5.3c0.2-5.6,3.6-10.3,8.7-12
				C77.7,78.7,79.3,78.4,80.9,78.4 M61.4,91c-0.1,2,0,4.1,0.3,6.3c0.3,2.6,0.9,4.9,1.8,7.1c1.2,3,3.2,5.9,5.9,8.9
				c2.5,2.8,5.3,5.2,8.1,7.7l2.3,2c4,3.5,8.1,7.1,12.1,10.7l4.2,3.9l2.3-2.1c0.8-0.7,1.5-1.4,2.3-2.1c1.7-1.6,3.4-3.2,5.2-4.7
				c2-1.8,4.1-3.6,6.1-5.4c1.7-1.5,3.4-3,5.1-4.5c2.2-1.9,4.9-4.5,7.4-7.4c2.4-3,4.1-6.1,5.1-9.4c0.7-2.2,1.1-4.5,1.2-7.1
				c0.1-1.8,0.2-3.8-0.1-5.9c-0.6-4.1-2.4-7.7-5.2-10.6c-3.3-3.4-7.5-5.3-12.4-5.7c-3.7-0.3-7.2,0.4-10.5,2.1
				c-2.4,1.2-4.6,2.9-6.4,5.1c-0.4-0.4-0.7-0.8-1.1-1.2c-6-5.7-13.1-7.4-20.8-4.9C66.7,76,61.7,82.9,61.4,91"/>
			<path id="Fill-6" class="st1" d="M44.5,49.4c1.2,1.2,3.1,1.1,4.2-0.1v0c1.2-1.2,1.1-3.1-0.1-4.2l-1.6-1.5
				c-1.2-1.2-3.1-1.1-4.2,0.1l0,0c-1.2,1.2-1.1,3.1,0.1,4.2L44.5,49.4z"/>
			<path id="Fill-8" class="st1" d="M65.4,69.7c1.2,1.2,3.1,1.1,4.2-0.1v0c1.2-1.2,1.1-3.1-0.1-4.2L56.7,53
				c-1.2-1.2-3.1-1.1-4.2,0.1h0c-1.2,1.2-1.1,3.1,0.1,4.2L65.4,69.7z"/>
			<g id="Group-12" transform="translate(0.000000, 54.702000)">
				<g id="Clip-11">
				</g>
				<defs>
					
						<filter id="Adobe_OpacityMaskFilter_00000019647706194426503810000009053768994574893242_" filterUnits="userSpaceOnUse" x="0" y="0.4" width="7.9" height="6.8">
						<feColorMatrix  type="matrix" values="1 0 0 0 0  0 1 0 0 0  0 0 1 0 0  0 0 0 1 0"/>
					</filter>
				</defs>
				
					<mask maskUnits="userSpaceOnUse" x="0" y="0.4" width="7.9" height="6.8" id="mask-4_00000082347652855178071450000002123166891147920544_">
					<g style="filter:url(#Adobe_OpacityMaskFilter_00000019647706194426503810000009053768994574893242_);">
						<polygon id="path-3_00000021802299599245337170000009794995797632286647_" class="st1" points="0,0.4 7.9,0.4 7.9,7.2 0,7.2 
													"/>
					</g>
				</mask>
				<path id="Fill-10" class="st5" d="M6.1,1.4L4.2,0.6C2.7,0,0.9,0.7,0.3,2.2l0,0c-0.7,1.5,0,3.3,1.6,3.9l1.9,0.8
					c1.5,0.7,3.3,0,3.9-1.6l0,0C8.3,3.9,7.6,2.1,6.1,1.4"/>
			</g>
			<path id="Fill-13" class="st1" d="M17.1,67.5l11.2,4.9c1.5,0.7,3.3,0,3.9-1.6v0c0.7-1.5,0-3.3-1.6-3.9L19.5,62
				c-1.5-0.7-3.3,0-3.9,1.6v0C14.9,65.1,15.6,66.8,17.1,67.5"/>
			<path id="Fill-15" class="st1" d="M41.8,78.3c0.1,0.1,0.3,0.1,0.4,0.2c1.5,0.7,3.3-0.1,4-1.6v0c0.6-1.5-0.1-3.2-1.6-3.9
				c-0.1-0.1-0.2-0.1-0.4-0.2c-1.5-0.7-3.3,0-4,1.6h0C39.6,75.8,40.3,77.6,41.8,78.3"/>
			<g id="Group-19" transform="translate(54.000000, 0.702000)">
				<g id="Clip-18">
				</g>
				<defs>
					
						<filter id="Adobe_OpacityMaskFilter_00000098221638052426077200000001326530547259319952_" filterUnits="userSpaceOnUse" x="0.2" y="0.3" width="14.2" height="25.5">
						<feColorMatrix  type="matrix" values="1 0 0 0 0  0 1 0 0 0  0 0 1 0 0  0 0 0 1 0"/>
					</filter>
				</defs>
				
					<mask maskUnits="userSpaceOnUse" x="0.2" y="0.3" width="14.2" height="25.5" id="mask-6_00000085958116268080813440000013958783791714415751_">
					<g style="filter:url(#Adobe_OpacityMaskFilter_00000098221638052426077200000001326530547259319952_);">
						<polygon id="path-5_00000088097908622285309430000011755644106114096057_" class="st1" points="0.2,0.3 14.4,0.3 14.4,25.8 
							0.2,25.8 						"/>
					</g>
				</mask>
				<path id="Fill-17" class="st7" d="M8.6,23.9c0.6,1.5,2.4,2.2,3.9,1.6l0,0c1.5-0.6,2.2-2.4,1.6-3.9L6,2.1
					C5.4,0.6,3.6-0.1,2.1,0.5l0,0C0.5,1.2-0.2,2.9,0.5,4.5L8.6,23.9z"/>
			</g>
			<path id="Fill-20" class="st1" d="M72,46.9c0.6,1.5,2.4,2.2,3.9,1.6v0c1.5-0.6,2.2-2.4,1.6-3.9l-2.4-5.7
				c-0.6-1.5-2.4-2.2-3.9-1.6l0,0c-1.5,0.6-2.2,2.4-1.6,3.9L72,46.9z"/>
			<path id="Fill-22" class="st1" d="M96.1,36.7L96.1,36.7c1.7,0,3-1.4,3-3l0-8.3c0-1.7-1.4-3-3-3l0,0c-1.7,0-3,1.4-3,3l0,8.3
				C93.1,35.3,94.4,36.7,96.1,36.7"/>
			<path id="Fill-24" class="st1" d="M96.1,43.4L96.1,43.4c-1.7,0-3,1.4-3,3l0,9.8c0,1.7,1.4,3,3,3l0,0c1.7,0,3-1.4,3-3l0-9.8
				C99.1,44.8,97.8,43.4,96.1,43.4"/>
			<path id="Fill-26" class="st1" d="M132.7,7.6L132.7,7.6c1.5,0.6,3.3-0.2,3.9-1.7l0.3-0.8c0.6-1.5-0.2-3.3-1.7-3.9h0
				c-1.5-0.6-3.3,0.2-3.9,1.7L131,3.7C130.4,5.3,131.2,7,132.7,7.6"/>
			<path id="Fill-28" class="st1" d="M122.8,33.1L122.8,33.1c1.5,0.6,3.3-0.2,3.9-1.7l5.6-14.4c0.6-1.5-0.2-3.3-1.7-3.9h0
				c-1.5-0.6-3.3,0.2-3.9,1.7l-5.6,14.4C120.5,30.8,121.3,32.5,122.8,33.1"/>
			<path id="Fill-30" class="st1" d="M117.2,47.8L117.2,47.8c1.5,0.6,3.3-0.2,3.9-1.7l0.7-1.9c0.6-1.5-0.2-3.3-1.7-3.9v0
				c-1.5-0.6-3.3,0.2-3.9,1.7l-0.7,1.9C114.9,45.5,115.6,47.2,117.2,47.8"/>
			<path id="Fill-32" class="st1" d="M147.6,49.7l1-1c1.2-1.2,1.2-3.1,0-4.2c-1.2-1.2-3.1-1.2-4.2,0l-1,1c-1.2,1.2-1.2,3.1,0,4.2
				C144.5,50.9,146.4,50.9,147.6,49.7"/>
			<path id="Fill-34" class="st1" d="M134.2,54.6l-11.2,11.2c-1.2,1.2-1.2,3.1,0,4.2c1.2,1.2,3.1,1.2,4.2,0l11.2-11.2
				c1.2-1.2,1.2-3.1,0-4.2C137.3,53.4,135.4,53.4,134.2,54.6"/>
			<path id="Fill-36" class="st1" d="M190.5,57.2L190.5,57.2c-0.6-1.5-2.4-2.2-3.9-1.6l-1.1,0.5c-1.5,0.6-2.2,2.4-1.6,3.9l0,0
				c0.6,1.5,2.4,2.2,3.9,1.6l1.1-0.5C190.4,60.5,191.1,58.7,190.5,57.2"/>
			<path id="Fill-38" class="st1" d="M178.7,62.2c-0.6-1.5-2.4-2.2-3.9-1.6l-12,5.1c-1.5,0.6-2.2,2.4-1.6,3.9v0
				c0.6,1.5,2.4,2.2,3.9,1.6l12-5.1C178.7,65.5,179.4,63.7,178.7,62.2L178.7,62.2z"/>
			<path id="Fill-40" class="st1" d="M146.2,76L146.2,76c0.6,1.5,2.4,2.2,3.9,1.6l2.7-1.2c1.5-0.6,2.2-2.4,1.6-3.9v0
				c-0.6-1.5-2.4-2.2-3.9-1.6l-2.7,1.2C146.3,72.8,145.6,74.5,146.2,76"/>
		</g>
	</g>
</g>
</svg>
