<?xml version="1.0" encoding="UTF-8"?>
<svg width="191px" height="197px" viewBox="0 0 191 197" version="1.1" xmlns="http://www.w3.org/2000/svg" xmlns:xlink="http://www.w3.org/1999/xlink">
    <title>Group 42</title>
    <defs>
        <polygon id="path-1" points="0.578395892 0.284964827 161.611004 0.284964827 161.611004 110 0.578395892 110"></polygon>
        <polygon id="path-3" points="0 0.381135968 7.85612818 0.381135968 7.85612818 7.19126403 0 7.19126403"></polygon>
        <polygon id="path-5" points="0.227412575 0.298 14.3901874 0.298 14.3901874 25.7516264 0.227412575 25.7516264"></polygon>
    </defs>
    <g id="Page-1" stroke="none" stroke-width="1" fill="none" fill-rule="evenodd">
        <g id="Desktop-HD" transform="translate(-582.000000, -357.000000)">
            <g id="Group-42" transform="translate(582.000000, 357.000000)">
                <g id="Group-3" transform="translate(15.000000, 86.702000)">
                    <mask id="mask-2" fill="white">
                        <use xlink:href="#path-1"></use>
                    </mask>
                    <g id="Clip-2"></g>
                    <path d="M139.6937,29.0552 C139.3897,28.9812 139.0777,28.9482 138.7627,28.9342 C138.9107,22.8862 139.3847,11.6402 140.5897,7.4202 C141.0547,5.7952 141.7807,5.2812 141.9327,5.28517687 C142.2697,5.3162 144.0527,6.6732 144.6757,12.2592 C143.8187,14.4412 143.0697,17.0522 142.5467,20.1942 C142.3767,21.2132 142.2067,22.3222 142.0257,23.5042 C141.7387,25.3752 141.4217,27.4412 141.0277,29.6292 C140.6147,29.3802 140.1787,29.1732 139.6937,29.0552 L139.6937,29.0552 Z M124.3267,42.2002 C123.1657,34.7692 123.0997,27.3382 124.9387,25.8052 C125.3237,25.4852 126.0877,25.6852 126.7157,25.9352 C126.5497,31.5572 126.7867,37.0682 126.8617,38.6082 C126.5667,39.0352 126.2697,39.4722 125.9697,39.9282 C125.4597,40.7032 124.9047,41.4562 124.3267,42.2002 L124.3267,42.2002 Z M132.6807,16.6072 C133.0107,15.3262 133.3217,14.5342 133.5577,14.0542 C133.6947,14.2422 133.8547,14.4862 134.0347,14.8002 L134.5007,14.5342 C133.9557,20.6832 133.7797,27.7672 133.7267,30.8812 C133.0607,31.3842 132.3807,31.9722 131.6807,32.6682 C131.5997,27.5302 131.6977,20.4172 132.6807,16.6072 L132.6807,16.6072 Z M35.3277,38.6082 C35.4027,37.0682 35.6397,31.5572 35.4737,25.9352 C36.1017,25.6852 36.8657,25.4852 37.2507,25.8052 C39.0897,27.3382 39.0237,34.7692 37.8627,42.2002 C37.2847,41.4562 36.7297,40.7032 36.2197,39.9282 C35.9197,39.4722 35.6227,39.0352 35.3277,38.6082 L35.3277,38.6082 Z M20.1647,23.5042 C19.9827,22.3222 19.8127,21.2132 19.6437,20.1942 C19.1197,17.0522 18.3707,14.4412 17.5137,12.2592 C18.1367,6.6732 19.9207,5.3162 20.2567,5.28517687 C20.4087,5.2812 21.1347,5.7952 21.5997,7.4202 C22.8047,11.6402 23.2787,22.8862 23.4277,28.9342 C23.1117,28.9482 22.7997,28.9812 22.4957,29.0552 C22.0107,29.1732 21.5747,29.3802 21.1617,29.6292 C20.7677,27.4412 20.4507,25.3752 20.1647,23.5042 L20.1647,23.5042 Z M28.1547,14.8002 C28.3347,14.4862 28.4947,14.2422 28.6317,14.0542 C28.8677,14.5342 29.1787,15.3262 29.5087,16.6072 C30.4917,20.4172 30.5897,27.5302 30.5087,32.6682 C29.8087,31.9722 29.1287,31.3842 28.4627,30.8812 C28.4107,27.7672 28.2337,20.6832 27.6887,14.5342 L28.1547,14.8002 Z M158.5587,1.4932 C155.9347,0.0832 153.0427,1.8182 152.0927,2.3882 C151.1977,2.9252 149.7817,3.9842 148.2827,5.8512 C146.9767,2.5282 144.9327,0.5392 142.3887,0.3062 C139.4467,0.0402 136.8567,2.2912 135.7827,6.0472 C135.5527,6.8512 135.3487,7.8422 135.1667,8.9572 C134.3197,8.5522 133.5367,8.4932 132.8967,8.5772 C129.8257,8.9902 128.5397,12.6442 127.8397,15.3572 C127.4517,16.8582 127.1847,18.7502 127.0037,20.8042 C124.5087,20.2692 122.7957,21.0832 121.7367,21.9652 C116.4877,26.3422 118.8397,40.8492 120.0767,46.8152 C114.4567,52.0292 106.4117,56.7262 94.4757,61.9092 C87.2767,65.0342 83.2837,68.5062 81.0947,71.6112 C78.9057,68.5062 74.9127,65.0342 67.7137,61.9092 C55.7777,56.7262 47.7327,52.0292 42.1127,46.8152 C43.3497,40.8492 45.7017,26.3422 40.4527,21.9652 C39.3947,21.0832 37.6807,20.2692 35.1857,20.8042 C35.0047,18.7502 34.7377,16.8582 34.3507,15.3572 C33.6497,12.6442 32.3637,8.9902 29.2927,8.5772 C28.6527,8.4932 27.8697,8.5522 27.0227,8.9572 C26.8407,7.8422 26.6367,6.8512 26.4067,6.0472 C25.3327,2.2912 22.7427,0.0402 19.8007,0.3062 C17.2567,0.5392 15.2127,2.5282 13.9067,5.8512 C12.4077,3.9842 10.9917,2.9252 10.0967,2.3882 C9.1467,1.8182 6.2547,0.0832 3.6307,1.4932 C1.1127,2.8462 0.6887,6.0762 0.5877,8.3872 C0.3497,13.8672 4.6877,41.4782 12.4567,59.6792 C19.7407,76.7452 34.6367,84.5122 42.6397,88.6852 C43.5197,89.1442 44.3287,89.5652 45.0437,89.9562 C50.7397,93.0622 50.5807,98.1972 50.5727,98.3892 L50.5687,107.4992 C50.5677,108.8802 51.6867,110.0002 53.0677,110.0002 L53.0677,110.0002 C54.4477,110.0002 55.5667,108.8812 55.5667,107.5002 L55.5667,98.6022 C55.6037,97.5592 55.5767,90.0052 47.4387,85.5662 C46.6977,85.1622 45.8627,84.7262 44.9507,84.2512 C36.9787,80.0952 23.6377,73.1382 17.0547,57.7162 C9.3447,39.6512 5.4017,12.7822 5.5827,8.6042 C5.6517,7.0222 5.8857,6.2862 6.0207,5.9862 C6.2637,6.0422 6.7407,6.2062 7.5237,6.6762 C8.4147,7.2102 12.9437,10.4112 14.7117,21.0162 C14.8777,22.0152 15.0437,23.1022 15.2217,24.2612 C17.2257,37.3452 20.5807,59.2432 40.2417,69.5012 L42.5537,65.0682 C30.7347,58.9012 25.5057,47.5562 22.7817,37.1042 C23.0877,34.5532 23.6907,33.9362 23.6677,33.9162 C24.1797,33.8852 27.1597,35.2612 32.0437,42.6782 C38.0657,51.8232 47.8507,58.6592 65.7227,66.4942 C76.3767,71.1652 78.2297,76.8932 78.5537,78.7562 C78.5487,79.0522 78.5567,79.3202 78.5737,79.5562 L78.5307,79.7092 L78.5307,101.5552 C78.5307,102.9362 79.6497,104.0552 81.0307,104.0552 C81.0527,104.0552 81.0727,104.0492 81.0947,104.0492 C81.1167,104.0492 81.1367,104.0552 81.1587,104.0552 C82.5397,104.0552 83.6587,102.9362 83.6587,101.5552 L83.6587,79.7092 L83.6157,79.5562 C83.6347,79.2842 83.6427,78.9692 83.6317,78.6182 C83.9517,76.5982 85.8037,70.9322 96.4667,66.4942 C114.4827,58.9972 124.1237,51.8232 130.1457,42.6782 C135.0297,35.2612 138.0097,33.8852 138.5217,33.9162 C138.4997,33.9362 139.1027,34.5532 139.4077,37.1042 C136.6837,47.5562 131.4547,58.9012 119.6357,65.0682 L121.9477,69.5012 C141.6097,59.2432 144.9637,37.3452 146.9677,24.2612 C147.1457,23.1022 147.3117,22.0152 147.4777,21.0162 C149.2457,10.4112 153.7757,7.2102 154.6657,6.6762 C155.4487,6.2062 155.9257,6.0422 156.1687,5.9862 C156.3037,6.2862 156.5377,7.0222 156.6067,8.6042 C156.7877,12.7822 152.8447,39.6512 145.1347,57.7162 C138.5517,73.1382 125.2107,80.0952 117.2387,84.2512 C116.3267,84.7262 115.4917,85.1622 114.7507,85.5662 C106.6127,90.0052 106.5857,97.5592 106.6227,98.6022 L106.6227,107.5002 C106.6227,108.8812 107.7417,110.0002 109.1217,110.0002 C110.5027,110.0002 111.6217,108.8802 111.6217,107.4992 L111.6167,98.3892 C111.6097,98.1972 111.4497,93.0622 117.1457,89.9562 C117.8607,89.5652 118.6697,89.1442 119.5497,88.6852 C127.5527,84.5122 142.4487,76.7452 149.7337,59.6792 C157.5017,41.4782 161.8397,13.8672 161.6017,8.3872 C161.5007,6.0762 161.0767,2.8462 158.5587,1.4932 L158.5587,1.4932 Z" id="Fill-1" fill="#FFFFFF" mask="url(#mask-2)"></path>
                </g>
                <path d="M80.9089,78.4422 C84.4779,78.4422 87.7389,79.8982 90.7839,82.8322 C91.6859,83.7022 92.5159,84.7562 93.3249,86.0602 C93.3789,86.1482 93.4359,86.2332 93.5069,86.3362 L96.1149,90.2152 L98.8289,85.9902 C100.5619,83.2472 102.6579,81.2712 105.2359,79.9482 C107.5279,78.7722 109.9069,78.3062 112.5069,78.5132 C115.9649,78.7922 118.7689,80.0822 121.0799,82.4572 C123.0249,84.4552 124.1819,86.8432 124.6179,89.7592 C124.8469,91.2912 124.7789,92.9082 124.6899,94.4322 C124.5679,96.5152 124.2539,98.3892 123.7289,100.1602 C122.9669,102.7302 121.6609,105.1302 119.7379,107.4962 C117.6109,110.1142 115.1709,112.3682 113.0639,114.2282 C111.3809,115.7142 109.6879,117.1902 107.9949,118.6662 C105.9329,120.4632 103.8719,122.2592 101.8279,124.0752 C100.0489,125.6542 98.2819,127.2862 96.5739,128.8632 C96.4069,129.0172 96.2409,129.1712 96.0739,129.3242 L95.9719,129.2292 C91.9719,125.4912 87.7909,121.8632 83.7479,118.3542 L81.4589,116.3662 C78.7629,114.0192 76.1479,111.7022 73.8119,109.1622 C71.5549,106.7102 70.0429,104.4522 69.0549,102.0582 C68.3549,100.3602 67.8859,98.5442 67.6189,96.5042 C67.3849,94.7062 67.2969,92.9342 67.3579,91.2392 C67.5619,85.6402 70.9709,80.9432 76.0429,79.2752 C77.7289,78.7202 79.3479,78.4422 80.9089,78.4422 M61.3619,91.0212 C61.2889,93.0482 61.3919,95.1542 61.6699,97.2802 C62.0049,99.8462 62.6059,102.1572 63.5089,104.3462 C64.7569,107.3732 66.6829,110.2772 69.3959,113.2252 C71.9409,115.9912 74.6909,118.4302 77.5209,120.8922 L79.8149,122.8852 C83.8179,126.3592 87.9559,129.9502 91.8759,133.6122 L96.0579,137.5392 L98.3249,135.4072 C99.0999,134.6972 99.8709,133.9842 100.6429,133.2722 C102.3309,131.7142 104.0769,130.1022 105.8119,128.5612 C107.8429,126.7572 109.8899,124.9732 111.9369,123.1892 C113.6399,121.7052 115.3429,120.2202 117.0359,118.7252 C119.1919,116.8212 121.9769,114.2552 124.3939,111.2802 C126.8259,108.2882 128.4899,105.2092 129.4809,101.8662 C130.1389,99.6472 130.5309,97.3302 130.6799,94.7822 C130.7829,93.0242 130.8659,90.9722 130.5519,88.8722 C129.9319,84.7282 128.1929,81.1612 125.3799,78.2722 C122.0579,74.8592 117.8889,72.9282 112.9899,72.5332 C109.2929,72.2312 105.7639,72.9332 102.4959,74.6102 C100.0709,75.8552 97.9169,77.5532 96.0619,79.6802 C95.7009,79.2702 95.3299,78.8812 94.9479,78.5122 C88.9889,72.7712 81.8029,71.0642 74.1679,73.5762 C66.6849,76.0372 61.6589,82.8852 61.3619,91.0212" id="Fill-4" fill="#FFFFFF"></path>
                <path d="M44.4833,49.4294 C45.6733,50.5824 47.5723,50.5524 48.7253,49.3634 L48.7253,49.3624 C49.8783,48.1724 49.8483,46.2734 48.6593,45.1204 L47.0983,43.6074 C45.9083,42.4554 44.0093,42.4844 42.8563,43.6744 L42.8563,43.6744 C41.7033,44.8644 41.7323,46.7634 42.9223,47.9164 L44.4833,49.4294 Z" id="Fill-6" fill="#FFFFFF"></path>
                <path d="M65.3666,69.6682 C66.5566,70.8212 68.4556,70.7912 69.6086,69.6022 L69.6086,69.6012 C70.7616,68.4112 70.7316,66.5122 69.5426,65.3592 L56.7416,52.9532 C55.5516,51.8012 53.6526,51.8302 52.4996,53.0202 L52.4986,53.0202 C51.3456,54.2102 51.3756,56.1092 52.5656,57.2622 L65.3666,69.6682 Z" id="Fill-8" fill="#FFFFFF"></path>
                <g id="Group-12" transform="translate(0.000000, 54.702000)">
                    <mask id="mask-4" fill="white">
                        <use xlink:href="#path-3"></use>
                    </mask>
                    <g id="Clip-11"></g>
                    <path d="M6.0544,1.4407 L4.1994,0.6317 C2.6804,-0.0303 0.9124,0.6647 0.2504,2.1837 L0.2504,2.1837 C-0.4116,3.7027 0.2834,5.4697 1.8024,6.1317 L3.6574,6.9407 C5.1764,7.6027 6.9444,6.9077 7.6054,5.3887 L7.6054,5.3887 C8.2674,3.8697 7.5734,2.1027 6.0544,1.4407" id="Fill-10" fill="#FFFFFF" mask="url(#mask-4)"></path>
                </g>
                <path d="M17.0807,67.4917 L28.2387,72.3507 C29.7577,73.0127 31.5257,72.3177 32.1867,70.7987 L32.1867,70.7977 C32.8477,69.2797 32.1527,67.5117 30.6347,66.8507 L19.4767,61.9907 C17.9577,61.3287 16.1907,62.0237 15.5287,63.5427 L15.5287,63.5437 C14.8667,65.0627 15.5617,66.8297 17.0807,67.4917" id="Fill-13" fill="#FFFFFF"></path>
                <path d="M41.8413,78.2696 C41.9743,78.3276 42.1003,78.3826 42.2223,78.4346 C43.7703,79.1066 45.5613,78.3686 46.1933,76.8036 L46.1933,76.8026 C46.8023,75.2946 46.1043,73.5796 44.6123,72.9316 C44.4893,72.8776 44.3623,72.8226 44.2323,72.7666 C42.7133,72.1066 40.9413,72.8006 40.2813,74.3196 L40.2803,74.3196 C39.6193,75.8396 40.3213,77.6096 41.8413,78.2696" id="Fill-15" fill="#FFFFFF"></path>
                <g id="Group-19" transform="translate(54.000000, 0.702000)">
                    <mask id="mask-6" fill="white">
                        <use xlink:href="#path-5"></use>
                    </mask>
                    <g id="Clip-18"></g>
                    <path d="M8.6238,23.9121 C9.2648,25.4401 11.0228,26.1581 12.5508,25.5171 L12.5508,25.5171 C14.0778,24.8761 14.7968,23.1181 14.1558,21.5911 L5.9938,2.1381 C5.3528,0.6101 3.5948,-0.1089 2.0668,0.5321 L2.0668,0.5321 C0.5398,1.1731 -0.1792,2.9311 0.4618,4.4591 L8.6238,23.9121 Z" id="Fill-17" fill="#FFFFFF" mask="url(#mask-6)"></path>
                </g>
                <path d="M71.9563,46.8584 C72.5973,48.3864 74.3553,49.1044 75.8833,48.4644 L75.8833,48.4634 C77.4113,47.8224 78.1303,46.0644 77.4893,44.5364 L75.0873,38.8124 C74.4463,37.2844 72.6883,36.5654 71.1603,37.2064 L71.1593,37.2074 C69.6323,37.8484 68.9133,39.6064 69.5543,41.1334 L71.9563,46.8584 Z" id="Fill-20" fill="#FFFFFF"></path>
                <path d="M96.0943,36.6571357 L96.0953,36.6571357 C97.7513,36.6491 99.0883,35.3001 99.0813274,33.6441 L99.0443,25.3581 C99.0363,23.7011 97.6873,22.3641 96.0303,22.3720643 L96.0303,22.3720643 C94.3733,22.3791 93.0363,23.7281 93.0442643,25.3851 L93.0813,33.6711 C93.0883,35.3281 94.4373,36.6651 96.0943,36.6571357" id="Fill-22" fill="#FFFFFF"></path>
                <path d="M96.1248,43.4275643 L96.1238,43.4275643 C94.4678,43.4356 93.1308,44.7846 93.1377726,46.4406 L93.1818,56.2116 C93.1898,57.8686 94.5388,59.2056 96.1958,59.1976357 L96.1958,59.1976357 C97.8528,59.1896 99.1898,57.8416 99.1818357,56.1846 L99.1378,46.4136 C99.1308,44.7566 97.7818,43.4196 96.1248,43.4275643" id="Fill-24" fill="#FFFFFF"></path>
                <path d="M132.7015,7.615 L132.7025,7.615 C134.2475,8.213 135.9845,7.444 136.5815,5.899 L136.8845,5.114 C137.4825,3.569 136.7135,1.832 135.1685,1.234 L135.1675,1.234 C133.6225,0.637 131.8855,1.405 131.2885,2.951 L130.9845,3.736 C130.3875,5.281 131.1565,7.018 132.7015,7.615" id="Fill-26" fill="#FFFFFF"></path>
                <path d="M122.8446,33.1164 L122.8456,33.1164 C124.3906,33.7144 126.1276,32.9454 126.7246,31.4004 L132.2896,17.0014 C132.8866,15.4564 132.1186,13.7194 130.5736,13.1224 L130.5726,13.1224 C129.0276,12.5254 127.2906,13.2934 126.6936,14.8384 L121.1276,29.2374 C120.5306,30.7824 121.2996,32.5194 122.8446,33.1164" id="Fill-28" fill="#FFFFFF"></path>
                <path d="M117.1678,47.803 L117.1688,47.803 C118.7138,48.401 120.4508,47.632 121.0478,46.087 L121.7918,44.162 C122.3888,42.617 121.6208,40.88 120.0748,40.283 L120.0748,40.282 C118.5288,39.685 116.7928,40.454 116.1948,41.999 L115.4508,43.924 C114.8538,45.469 115.6228,47.206 117.1678,47.803" id="Fill-30" fill="#FFFFFF"></path>
                <path d="M147.5846,49.702 L148.5436,48.743 C149.7156,47.571 149.7156,45.672 148.5436,44.5 C147.3726,43.329 145.4736,43.329 144.3016,44.5 L143.3426,45.46 C142.1706,46.631 142.1706,48.531 143.3426,49.702 C144.5136,50.873 146.4136,50.873 147.5846,49.702" id="Fill-32" fill="#FFFFFF"></path>
                <path d="M134.1872,54.6151 L122.9482,65.8541 C121.7762,67.0261 121.7762,68.9251 122.9482,70.0961 C124.1192,71.2681 126.0182,71.2681 127.1902,70.0961 L138.4292,58.8571 C139.6012,57.6861 139.6012,55.7861 138.4292,54.6151 C137.2582,53.4441 135.3582,53.4441 134.1872,54.6151" id="Fill-34" fill="#FFFFFF"></path>
                <path d="M190.4891,57.2165 L190.4891,57.2155 C189.8401,55.6915 188.0791,54.9815 186.5541,55.6295 L185.4411,56.1035 C183.9161,56.7515 183.2061,58.5135 183.8541,60.0375 L183.8551,60.0385 C184.5031,61.5625 186.2651,62.2735 187.7891,61.6245 L188.9031,61.1515 C190.4271,60.5025 191.1371,58.7405 190.4891,57.2165" id="Fill-36" fill="#FFFFFF"></path>
                <path d="M178.7461,62.2104 C178.0981,60.6864 176.3361,59.9754 174.8111,60.6244 L162.8031,65.7324 C161.2791,66.3804 160.5691,68.1424 161.2171,69.6664 L161.2171,69.6674 C161.8661,71.1924 163.6271,71.9024 165.1521,71.2534 L177.1601,66.1454 C178.6851,65.4974 179.3951,63.7354 178.7461,62.2114 L178.7461,62.2104 Z" id="Fill-38" fill="#FFFFFF"></path>
                <path d="M146.2319,76.0414 L146.2319,76.0424 C146.8809,77.5664 148.6419,78.2764 150.1669,77.6284 L152.8979,76.4664 C154.4219,75.8184 155.1319,74.0564 154.4839,72.5324 L154.4839,72.5314 C153.8349,71.0064 152.0729,70.2964 150.5489,70.9454 L147.8179,72.1074 C146.2939,72.7554 145.5839,74.5174 146.2319,76.0414" id="Fill-40" fill="#FFFFFF"></path>
            </g>
        </g>
    </g>
</svg>