<?xml version="1.0" encoding="utf-8"?>
<!-- Generator: Adobe Illustrator 26.0.3, SVG Export Plug-In . SVG Version: 6.00 Build 0)  -->
<svg version="1.1" id="Layer_1" xmlns="http://www.w3.org/2000/svg" xmlns:xlink="http://www.w3.org/1999/xlink" x="0px" y="0px"
	 viewBox="0 0 728.3 523.6" style="enable-background:new 0 0 728.3 523.6;" xml:space="preserve">
<style type="text/css">
	.st0{fill:#FFFFFF;}
	.st1{fill:#2596F4;}
	.st2{fill:#CCCCCC;}
	.st3{fill:#F2F2F2;}
	.st4{fill:#3F3D56;}
	.st5{fill:#FFB8B8;}
	.st6{fill:#2F2E41;}
</style>
<path class="st0" d="M711.3,523h-437c-9.4,0-17-7.6-17-17V17c0-9.4,7.6-17,17-17h437c9.4,0,17,7.6,17,17v489
	C728.3,515.4,720.7,523,711.3,523z M274.3,2c-8.3,0-15,6.7-15,15v489c0,8.3,6.7,15,15,15h437c8.3,0,15-6.7,15-15V17
	c0-8.3-6.7-15-15-15H274.3z"/>
<rect x="258.3" y="41.6" class="st0" width="469" height="2"/>
<circle class="st1" cx="281.3" cy="22" r="8"/>
<circle class="st1" cx="306.3" cy="22" r="8"/>
<circle class="st1" cx="331.3" cy="22" r="8"/>
<path class="st0" d="M648.8,115h-312c-7.2,0-13-5.8-13-13s5.8-13,13-13h312c7.2,0,13,5.8,13,13S656,115,648.8,115z M336.8,91
	c-6.1,0-11,4.9-11,11s4.9,11,11,11h312c6.1,0,11-4.9,11-11s-4.9-11-11-11H336.8z"/>
<path class="st2" d="M571.7,217.6h-142c-4.4,0-8-3.6-8-8s3.6-8,8-8h142c4.4,0,8,3.6,8,8S576.1,217.6,571.7,217.6z"/>
<path class="st2" d="M653.7,244.6h-224c-4.4,0-8-3.6-8-8s3.6-8,8-8h224c4.4,0,8,3.6,8,8S658.1,244.6,653.7,244.6z"/>
<path class="st2" d="M376.5,246.1h-43c-5.2,0-9.5-4.3-9.5-9.5v-27c0-5.2,4.3-9.5,9.5-9.5h43c5.2,0,9.5,4.3,9.5,9.5v27
	C386,241.8,381.7,246.1,376.5,246.1z M333.5,202.1c-4.1,0-7.5,3.4-7.5,7.5v27c0,4.1,3.4,7.5,7.5,7.5h43c4.1,0,7.5-3.4,7.5-7.5v-27
	c0-4.1-3.4-7.5-7.5-7.5H333.5z"/>
<path class="st2" d="M571.7,312.6h-142c-4.4,0-8-3.6-8-8s3.6-8,8-8h142c4.4,0,8,3.6,8,8S576.1,312.6,571.7,312.6z"/>
<path class="st2" d="M653.7,339.6h-224c-4.4,0-8-3.6-8-8s3.6-8,8-8h224c4.4,0,8,3.6,8,8S658.1,339.6,653.7,339.6z"/>
<path class="st2" d="M376.5,341.1h-43c-5.2,0-9.5-4.3-9.5-9.5v-27c0-5.2,4.3-9.5,9.5-9.5h43c5.2,0,9.5,4.3,9.5,9.5v27
	C386,336.8,381.7,341.1,376.5,341.1z M333.5,297.1c-4.1,0-7.5,3.4-7.5,7.5v27c0,4.1,3.4,7.5,7.5,7.5h43c4.1,0,7.5-3.4,7.5-7.5v-27
	c0-4.1-3.4-7.5-7.5-7.5H333.5z"/>
<path class="st3" d="M571.7,407.6h-142c-4.4,0-8-3.6-8-8s3.6-8,8-8h142c4.4,0,8,3.6,8,8S576.1,407.6,571.7,407.6z"/>
<path class="st3" d="M653.7,434.6h-224c-4.4,0-8-3.6-8-8s3.6-8,8-8h224c4.4,0,8,3.6,8,8S658.1,434.6,653.7,434.6z"/>
<path class="st3" d="M376.5,436.1h-43c-5.2,0-9.5-4.3-9.5-9.5v-27c0-5.2,4.3-9.5,9.5-9.5h43c5.2,0,9.5,4.3,9.5,9.5v27
	C386,431.8,381.7,436.1,376.5,436.1z"/>
<path class="st1" d="M355,237.8l-2.3-2.1c-8.2-7.5-13.7-12.4-13.7-18.6c-0.1-4.8,3.7-8.8,8.5-8.8c0.1,0,0.2,0,0.3,0
	c2.8,0,5.4,1.2,7.2,3.4c1.8-2.1,4.4-3.4,7.2-3.4c4.8-0.1,8.7,3.8,8.8,8.6c0,0.1,0,0.2,0,0.3c0,6.1-5.4,11-13.7,18.6L355,237.8z"/>
<path class="st1" d="M355,332.8l-2.3-2.1c-8.2-7.5-13.7-12.4-13.7-18.6c-0.1-4.8,3.7-8.8,8.5-8.8c0.1,0,0.2,0,0.3,0
	c2.8,0,5.4,1.2,7.2,3.4c1.8-2.1,4.4-3.4,7.2-3.4c4.8-0.1,8.7,3.8,8.8,8.6c0,0.1,0,0.2,0,0.3c0,6.1-5.4,11-13.7,18.6L355,332.8z"/>
<path class="st4" d="M173.3,316.8h-43c-5.2,0-9.5-4.3-9.5-9.5v-27c0-5.2,4.3-9.5,9.5-9.5h43c5.2,0,9.5,4.3,9.5,9.5v27
	C182.8,312.6,178.6,316.8,173.3,316.8z M130.3,272.8c-4.1,0-7.5,3.4-7.5,7.5v27c0,4.1,3.4,7.5,7.5,7.5h43c4.1,0,7.5-3.4,7.5-7.5v-27
	c0-4.1-3.4-7.5-7.5-7.5H130.3z"/>
<path class="st1" d="M151.8,308.6l-2.3-2.1c-8.2-7.5-13.7-12.4-13.7-18.6c-0.1-4.8,3.7-8.8,8.5-8.8c0.1,0,0.2,0,0.3,0
	c2.8,0,5.4,1.2,7.2,3.4c1.8-2.1,4.4-3.4,7.2-3.4c4.8-0.1,8.7,3.8,8.8,8.6c0,0.1,0,0.2,0,0.3c0,6.1-5.4,11-13.7,18.6L151.8,308.6z"/>
<polygon class="st5" points="127,512.1 138.1,509.5 133.2,465.3 116.8,469.2 "/>
<path class="st6" d="M162,514.7l-35,8.3l0,0l-3.2-13.5l0,0l21.4-5.1C152.7,502.6,160.2,507.2,162,514.7L162,514.7L162,514.7
	L162,514.7z"/>
<path class="st6" d="M116,483.7l-24.2-82.8l30.2-7.5l17.7,87.7c0.5,2.4-1.1,4.8-3.5,5.3c-0.2,0.1-0.5,0.1-0.8,0.1l-15,0.4
	c0,0-0.1,0-0.1,0C118.4,486.9,116.6,485.6,116,483.7z"/>
<polygon class="st5" points="58.1,512.4 69.5,512.4 75,468.3 58.1,468.3 "/>
<path class="st6" d="M91.6,523l-35.9,0l0,0l0-13.9l0,0l22,0C85.4,509.1,91.6,515.3,91.6,523L91.6,523L91.6,523L91.6,523z"/>
<path class="st6" d="M56.1,495.3c-0.8-0.8-1.3-1.9-1.3-3.1l-10.4-82.6c0-2.5,2-4.5,4.5-4.5l23.2-0.2h0c2.5,0,4.5,2,4.5,4.4l1.2,81.4
	c0,2.5-1.9,4.5-4.4,4.6l-14.1,1.3c0,0,0,0-0.1,0C58.1,496.5,56.9,496.1,56.1,495.3z"/>
<circle class="st5" cx="61.1" cy="197.3" r="24.6"/>
<path class="st1" d="M28.7,405.2c-16-12.5-15.8-27.1-10.4-46.5c1.5-5.5,3.2-11,4.9-16.9c8.2-27.3,17.4-58.3,13.9-83.9l0.5-0.1
	l-0.5,0.1c-1-7,1.5-14.4,6.7-20.2c5.2-5.8,12.3-9.1,19.4-8.9c7.1,0.2,13.9,3.8,18.9,9.9c4.9,6.1,7.2,27.5,7.9,30.5
	c3.2,14.1,5.1,22.6,6.5,36.1c1.6,16,21.1,63.9,27.3,71.9c3.3,4.3,4.7,9.8,3.7,15.1c-0.9,5.1-4,9.5-8.5,12.1
	c-10.1,6.2-21.1,10.5-32.7,12.9c-5,1-10.1,1.5-15.2,1.5C55.2,418.9,40.1,414.1,28.7,405.2z"/>
<path class="st5" d="M130.8,312.7c-2.4-4.6-8.1-6.4-12.7-4c-0.5,0.3-1,0.6-1.4,0.9L98.2,299l-9.2,9.7l26.5,14.6
	c3.5,3.9,9.4,4.3,13.3,0.8C132,321.3,132.9,316.5,130.8,312.7L130.8,312.7z"/>
<path class="st6" d="M102.5,319.9l-33.4-10.5c-9.2-2.9-15.6-11.2-16-20.8l-1.4-32.4c-0.3-7.5,5.5-13.8,13-14.2
	c7.5-0.3,13.8,5.5,14.2,13c0,0.3,0,0.7,0,1l-0.9,29.8l35.5,14.5c2.3,0.9,3.4,3.6,2.5,5.9c-0.1,0.3-0.3,0.6-0.5,0.9l-7.9,11.1
	C106.4,319.8,104.3,320.5,102.5,319.9L102.5,319.9z"/>
<path class="st6" d="M21.5,227.9c1.1-6.7,1.1-13.7,1-20.5c0-1.8,0-3.7,0-5.5c0.1-8.5,0.6-17.5,4.1-25.8c3.8-9,10.8-15.5,18.7-17.4
	c9-2.1,18.7,2.6,21.6,10.3c7.2-4.1,16.4-1.5,20.4,5.7c4.1,7.2,1.5,16.4-5.7,20.4c-1.7,1-3.6,1.6-5.6,1.8l-0.4,0l-2.9-7.6
	c0,0.1,0,0.3,0,0.4c-0.2,1.6-0.4,3.2-1.7,4.1l0,0c-1.6,1.2-3.6,5-3.1,9c0.4,2,0.9,4,1.6,5.9c0.8,2.1,1.4,4.3,1.7,6.5
	c0.4,2.8-0.4,5.7-2.1,8c-1,1.4-2.6,2.2-4.2,2.4l-33,3.4l-1.5-11l-9.4,11.6L21.5,227.9z"/>
<path class="st2" d="M193,523.6H1c-0.6,0-1-0.4-1-1s0.4-1,1-1h192c0.6,0,1,0.4,1,1S193.6,523.6,193,523.6z"/>
</svg>
