<?xml version="1.0" encoding="utf-8"?>
<!-- Generator: Adobe Illustrator 26.0.3, SVG Export Plug-In . SVG Version: 6.00 Build 0)  -->
<svg version="1.1" id="Layer_1" xmlns="http://www.w3.org/2000/svg" xmlns:xlink="http://www.w3.org/1999/xlink" x="0px" y="0px"
	 viewBox="0 0 836.8 447.5" style="enable-background:new 0 0 836.8 447.5;" xml:space="preserve">
<style type="text/css">
	.st0{fill:#3F3D56;}
	.st1{fill:#E6E6E6;}
	.st2{fill:#FFFFFF;}
	.st3{fill:#1C75BC;}
	.st4{fill:#6C63FF;}
	.st5{fill:#14C9BB;}
	.st6{opacity:0.2;enable-background:new    ;}
	.st7{fill:#E4E4E4;}
</style>
<path class="st0" d="M742.2,407.6H125.5c-10.7,0-19.3-8.6-19.3-19.3V98.6c0-10.7,8.6-19.3,19.3-19.3h616.7
	c10.7,0,19.3,8.6,19.3,19.3v289.7C761.5,399,752.8,407.6,742.2,407.6z"/>
<g>
	<path id="ed526203-2362-4a43-96ca-450f4725da7a" class="st1" d="M91.6,77.6h653.8v292.9c0,9.6-7.8,17.4-17.4,17.4H109
		c-9.6,0-17.4-7.8-17.4-17.4V77.6z"/>
	<rect id="bc241c52-ebb2-41fa-9574-d106f872c1dd" x="110.3" y="104.2" class="st2" width="616.4" height="258.9"/>
	<path id="bf2b7fee-aafd-4163-88e6-719b489e53a8" class="st3" d="M103.6,59.7h629.3c6.8,0,12.3,5.5,12.3,12.3v15.5H91.3V72
		C91.3,65.2,96.8,59.7,103.6,59.7z"/>
	<circle id="bcccbf37-d4b5-4127-83d7-1cbb700c027e" class="st2" cx="112" cy="72.5" r="5.1"/>
	<circle id="a113f3b2-577f-43f8-9adc-c82fb7c016a2" class="st2" cx="131.5" cy="72.5" r="5.1"/>
	<circle id="b270d923-4b8c-4c85-892d-857a2ab12939" class="st2" cx="151.1" cy="72.5" r="5.1"/>
	<rect x="212.6" y="207.4" class="st2" width="130.7" height="111.3"/>
	<path class="st0" d="M343.7,319.1H212.2v-112h131.5V319.1z M213,318.4h129.9V207.8H213V318.4z"/>
	<rect x="261.6" y="229.1" class="st4" width="32.7" height="89.7"/>
	<rect x="261.6" y="229.1" class="st5" width="32.7" height="89.7"/>
	<polygon class="st6" points="213,215.6 213,233.7 343.3,242 342.9,219.7 	"/>
	<rect x="205" y="197.2" class="st2" width="145.9" height="31.9"/>
	<path class="st0" d="M351.3,229.5H204.6v-32.7h146.7V229.5z M205.4,228.7h145.1v-31.2H205.4V228.7z"/>
	<rect x="261.6" y="194.1" class="st5" width="32.7" height="34.6"/>
	<path class="st5" d="M274.4,164c8.6,12.8,0.5,33.3,0.5,33.3s-22.1-0.2-30.7-13s-0.5-33.3-0.5-33.3S265.8,151.2,274.4,164z"/>
	<path class="st5" d="M278.4,164c-8.6,12.8-0.5,33.3-0.5,33.3s22.1-0.2,30.7-13s0.5-33.3,0.5-33.3S287,151.2,278.4,164z"/>
	<path class="st7" d="M620.5,259.9h-194c-5,0-9.1-4.1-9.1-9.1s4.1-9.1,9.1-9.1h194c5,0,9.1,4.1,9.1,9.1
		C629.6,255.8,625.5,259.9,620.5,259.9L620.5,259.9z"/>
	<path class="st7" d="M557.9,228.6H426.5c-5,0-9.1-4.1-9.1-9.1s4.1-9.1,9.1-9.1h131.4c5,0,9.1,4.1,9.1,9.1S563,228.6,557.9,228.6
		L557.9,228.6z"/>
	<path class="st3" d="M607.2,319.1c6.5-5.6,16.9-11,25.3-14.1c-8.4-3.1-18.9-8.4-25.3-14.1l4.6,12.6h-23.7v3h23.7L607.2,319.1z"/>
</g>
<g>
	<path class="st3" d="M472,315.1V295h6.2c1.8,0,3.4,0.4,4.8,1.2c1.4,0.8,2.5,1.9,3.3,3.4s1.2,3.1,1.2,5v0.9c0,1.9-0.4,3.5-1.2,5
		s-1.9,2.6-3.3,3.4s-3,1.2-4.7,1.2H472z M476.1,298.4v13.4h2c1.6,0,2.9-0.5,3.7-1.6s1.3-2.6,1.3-4.5v-1.1c0-2-0.4-3.6-1.3-4.7
		c-0.8-1.1-2.1-1.6-3.7-1.6h-2V298.4z"/>
	<path class="st3" d="M506.9,305.5c0,2-0.4,3.7-1.1,5.2s-1.7,2.6-3,3.5c-1.3,0.8-2.8,1.2-4.5,1.2s-3.2-0.4-4.5-1.2
		c-1.3-0.8-2.3-1.9-3-3.4s-1.1-3.2-1.1-5.1v-1c0-2,0.4-3.7,1.1-5.2s1.7-2.7,3-3.5s2.8-1.2,4.5-1.2s3.2,0.4,4.5,1.2
		c1.3,0.8,2.3,2,3,3.5s1.1,3.2,1.1,5.2V305.5z M502.7,304.6c0-2.1-0.4-3.7-1.1-4.8c-0.8-1.1-1.8-1.6-3.2-1.6c-1.4,0-2.5,0.5-3.2,1.6
		s-1.1,2.7-1.1,4.8v1c0,2.1,0.4,3.7,1.1,4.8c0.8,1.1,1.8,1.7,3.3,1.7c1.4,0,2.5-0.5,3.2-1.6s1.1-2.7,1.1-4.8L502.7,304.6
		L502.7,304.6z"/>
	<path class="st3" d="M526.3,315.1h-4.1l-8.1-13.2v13.2H510V295h4.1l8.1,13.3V295h4.1L526.3,315.1L526.3,315.1z"/>
	<path class="st3" d="M541.6,311h-7.3l-1.4,4.1h-4.4L536,295h3.8l7.5,20.1H543L541.6,311z M535.4,307.6h5l-2.5-7.5L535.4,307.6z"/>
	<path class="st3" d="M562.7,298.4h-6.2v16.8h-4.1v-16.8h-6.1V295h16.4L562.7,298.4L562.7,298.4z"/>
	<path class="st3" d="M577.2,306.4h-8v5.4h9.3v3.3H565V295h13.5v3.4h-9.3v4.8h8V306.4z"/>
</g>
</svg>
