<?xml version="1.0" encoding="utf-8"?>
<!-- Generator: Adobe Illustrator 26.0.3, SVG Export Plug-In . SVG Version: 6.00 Build 0)  -->
<svg version="1.1" id="Layer_1" xmlns="http://www.w3.org/2000/svg" xmlns:xlink="http://www.w3.org/1999/xlink" x="0px" y="0px"
	 viewBox="0 0 638.7 460.4" style="enable-background:new 0 0 638.7 460.4;" xml:space="preserve">
<style type="text/css">
	.st0{fill:#CCCCCC;}
	.st1{fill:#FFFFFF;}
	.st2{fill:#F2F2F2;}
	.st3{fill:#E6E6E6;}
	.st4{fill:#FFB8B8;}
	.st5{fill:#FFB6B6;}
	.st6{fill:#2F2E41;}
	.st7{fill:#3F3D56;}
	.st8{fill:#2596F4;}
	.st9{fill:#14C9BB;}
	.st10{opacity:0.2;fill:#231F20;enable-background:new    ;}
</style>
<path class="st0" d="M314.9,458.4h-24.5V269.6h20c2,0,3.6,1.6,3.7,3.6L314.9,458.4z"/>
<path class="st1" d="M292.7,459.4H29.2V325h263.5V459.4z"/>
<path class="st2" d="M188.8,458.9H29.7V325.5h262.5v30.1C292.1,412.6,245.9,458.9,188.8,458.9z"/>
<path class="st2" d="M310.9,275L310.9,275c-0.1,0.3-0.2,0.5-0.3,0.8l-9.1,35l-9.9,18.7H30.2v-4.6l14.9-14l17.4-33.2
	c0.8-1.5,1.8-2.8,3-3.9l0,0c2.7-2.6,6.4-4,10.2-4h232.1c2,0,3.7,1.6,3.7,3.7C311.3,273.9,311.2,274.5,310.9,275z"/>
<path class="st3" d="M292.7,459.4H29.2V325h263.5V459.4z M31.2,457.4h259.5V327H31.2V457.4z"/>
<polygon class="st0" points="306.4,292.9 301.5,310.8 45.1,310.8 53.4,295.9 "/>
<rect x="38.9" y="395.4" class="st1" width="42" height="2.3"/>
<rect x="38.9" y="403.6" class="st1" width="42" height="2.3"/>
<rect x="38.9" y="411.7" class="st1" width="42" height="2.3"/>
<circle class="st1" cx="55.2" cy="354.4" r="15.1"/>
<path class="st0" d="M220.8,300.6H208v-98.7h10.4c1.1,0,1.9,0.9,1.9,1.9L220.8,300.6z"/>
<path class="st1" d="M209.1,301.2H71.3v-70.3h137.8V301.2z"/>
<path class="st2" d="M154.8,300.9H71.6v-69.8h137.3v15.8C208.8,276.7,184.7,300.9,154.8,300.9z"/>
<path class="st2" d="M218.7,204.7L218.7,204.7c-0.1,0.1-0.1,0.3-0.2,0.4l-4.8,18.3l-5.2,9.8H71.9v-2.4l7.8-7.3l9.1-17.4
	c0.4-0.8,0.9-1.5,1.6-2.1l0,0c1.4-1.4,3.3-2.1,5.3-2.1H217c1.1,0,1.9,0.9,1.9,1.9C218.9,204.1,218.8,204.4,218.7,204.7z"/>
<path class="st3" d="M209.1,301.2H71.3v-70.3h137.8V301.2z M72.4,300.1h135.7v-68.2H72.4V300.1z"/>
<polygon class="st0" points="216.3,214.1 213.8,223.4 79.7,223.4 84,215.6 "/>
<rect x="76.4" y="267.7" class="st1" width="22" height="1.2"/>
<rect x="76.4" y="271.9" class="st1" width="22" height="1.2"/>
<rect x="76.4" y="276.2" class="st1" width="22" height="1.2"/>
<circle class="st1" cx="84.9" cy="246.3" r="7.9"/>
<path class="st2" d="M598.9,459.4l-0.1-0.4c-2.6-14.5,1.3-29.4,10.6-40.8c2.6-3.1,5.6-5.9,8.9-8.3l0.3-0.2l0.1,0.4
	c1.6,4.3,3.7,8.7,4.7,10.6l0.6-14.4l0.4-0.2c3.4-1.8,7.6-1.4,10.6,1.1c3.1,2.5,4.3,6.6,3.2,10.3c-0.5,1.7-1,3.4-1.4,5.1
	c-1.6,5.8-3.2,11.8-6.3,16.9c-4.9,7.7-13,12.8-22,13.9L598.9,459.4z"/>
<path class="st0" d="M638.7,459.2c0,0.7-0.5,1.2-1.2,1.2l0,0H1.2c-0.7,0-1.2-0.5-1.2-1.2s0.5-1.2,1.2-1.2h636.3
	C638.1,458,638.7,458.5,638.7,459.2L638.7,459.2z"/>
<path class="st4" d="M494.3,154.7l-18.2-2.6c-6.2,10.3-8.3,37.7-8.3,37.7L450,232.2c-3.7,2.5-4.7,7.6-2.2,11.3s7.6,4.7,11.3,2.2
	c2.4-1.6,3.8-4.4,3.5-7.3l29.3-49.3L494.3,154.7z"/>
<path class="st3" d="M491.4,104.2L491.4,104.2c10.6,1.6,17.9,11.6,16.2,22.2c-0.2,1.2-0.5,2.4-0.9,3.5l-3.9,11c0,0-2.1,33-10.1,42.3
	l-24.6-2.2c0,0,4.5-16.6,1-24.7c-2.1-4.9-2-22,0.1-35.8C470.9,109.7,480.8,102.5,491.4,104.2L491.4,104.2z"/>
<polygon class="st5" points="551.6,446.4 540.7,446.4 535.4,404.1 551.6,404.1 "/>
<path class="st6" d="M552,457.9h-33.7v-0.4c0-7.3,5.9-13.1,13.1-13.1l0,0l6.2-4.7l11.5,4.7h2.9V457.9z"/>
<polygon class="st5" points="503.9,394 493.8,398.2 472.8,361.1 487.7,354.9 "/>
<path class="st6" d="M508.7,404.4l-31.2,12.9l-0.2-0.4c-2.8-6.7,0.4-14.4,7.1-17.2l0,0l3.9-6.7l12.4-0.1l2.7-1.1L508.7,404.4z"/>
<path class="st6" d="M564.2,205.7l-77.9,8.1l-10.4,35.1l-36.1,58l39.8,73.2l14-12.6l-13.5-59.1l40.2-43.4l7.6-3.2l0,0l6,161
	l22.4,0.4l9.8-177.6C570.9,229.9,569.5,216.9,564.2,205.7z"/>
<path class="st3" d="M535.6,94.6l-12.8-14.4l-20.2,2.2l-12.9,18.1l0,0c-14.3,3.3-23.5,17.2-21,31.6c5,28.9,22.1,56.9,16.4,71.2
	c-8.5,21.6-9.1,30.5,11.4,27.4c20.5-3.1,89-10,75.7-23.3S556,172,556,172l-0.5-50.8c2.3-12.3-5.8-24-18.1-26.3
	C536.8,94.8,536.2,94.7,535.6,94.6L535.6,94.6z"/>
<ellipse transform="matrix(0.3795 -0.9252 0.9252 0.3795 266.7138 506.1064)" class="st4" cx="510.7" cy="54.2" rx="22.4" ry="22.4"/>
<path class="st6" d="M538.3,52.8c-1,4.5-2.8,8.9-5.3,12.8c-0.7,1.3-1.7,2.5-2.9,3.3c-1.3,0.8-3,0.6-4-0.5l-0.5-0.4
	c1.1-0.7,2-1.5,2.8-2.5s1.1-2.3,0.8-3.5c-0.4-1.2-1.7-1.9-3-1.6c-1.3,0.5-2.1,2.4-3.5,2.1c-1.1-0.2-1.3-1.7-1.3-2.9
	c0-6-2.9-14.6-5.1-14.3c-2.3,0.1-4.6-0.2-6.7-0.9c-2.2-0.7-4.4-1-6.7-0.9c-0.2,0-0.3,0.1-0.5,0.1c-0.4-1.1-0.9-2.2-1.5-3.3
	c0.1,1.2,0,2.5-0.2,3.7c-1.8,0.7-3.7,1.3-5.6,1.8c-2.1,0.3-6.7,6.5-6.9,5.9c-0.4-1.1-0.9-2.2-1.5-3.3c0.1,1.2,0,2.5-0.2,3.7
	c0,0.1,0,0.1,0,0.1c-1-1.3-1.6-3-1.3-1.7c-3.4-7.7-2.1-13.1,3.3-19.6c1-1.4,2.4-2.5,4-3.2s3.5-0.5,4.9,0.5
	c4.4-4.1,10.7-5.4,16.4-3.5c5.5,1.9,9.8,3.1,10.7,8.9c4.6-0.7,9.3,1.9,11.8,5.8C538.6,43.3,539.1,48.3,538.3,52.8z"/>
<path class="st7" d="M520.1,239h-7.4v-57.3h6.1c0.6,0,1.1,0.5,1.1,1.1L520.1,239z"/>
<path class="st1" d="M513.4,239.3h-79.9v-40.8h79.9V239.3z"/>
<path class="st8" d="M481.9,239.2h-48.3v-40.5h79.6v9.1C513.2,225.1,499.2,239.1,481.9,239.2z"/>
<path class="st7" d="M518.9,183.4L518.9,183.4c0,0.1-0.1,0.2-0.1,0.2l-2.8,10.6l-3,5.7h-79.3v-1.4l4.5-4.2l5.3-10.1
	c0.2-0.4,0.5-0.8,0.9-1.2l0,0c0.8-0.8,1.9-1.2,3.1-1.2h70.4c0.6,0,1.1,0.5,1.1,1.1C519,183,519,183.2,518.9,183.4z"/>
<path class="st7" d="M513.4,239.3h-79.9v-40.8h79.9V239.3z M434.1,238.7h78.7v-39.6h-78.7L434.1,238.7L434.1,238.7z"/>
<polygon class="st8" points="517.5,188.8 516,194.2 438.3,194.2 440.8,189.7 "/>
<rect x="436.4" y="219.9" class="st1" width="12.7" height="0.7"/>
<rect x="436.4" y="222.4" class="st1" width="12.7" height="0.7"/>
<rect x="436.4" y="224.8" class="st1" width="12.7" height="0.7"/>
<circle class="st1" cx="441.3" cy="207.5" r="4.6"/>
<path class="st4" d="M551.2,149.5l-18.2-2.6c-6.2,10.3-8.3,37.7-8.3,37.7L506.8,227c-3.7,2.5-4.7,7.6-2.2,11.3s7.6,4.7,11.3,2.2
	c2.4-1.6,3.8-4.4,3.5-7.3l29.3-49.3L551.2,149.5z"/>
<path class="st3" d="M541.3,98.9L541.3,98.9c10.6,1.6,17.9,11.6,16.2,22.2c-0.2,1.2-0.5,2.4-0.9,3.5l-3.9,11c0,0,4.9,33-3.2,42.3
	l-24.6-2.2c0,0,4.5-16.6,1-24.7c-2.1-4.9-2-22,0.1-35.8C527.7,104.5,530.7,97.3,541.3,98.9z"/>
<path class="st9" d="M386.7,44.3c-18.5,9.2-26.1,31.8-16.8,50.3s42.6,50.1,69.3,54.9c-11.5-34.8,4.5-70.2-2.2-88.4
	C429.8,41.7,405.2,35.1,386.7,44.3z"/>
<circle id="ae913700-e609-4a21-8232-fca89ee691a9" class="st1" cx="399.2" cy="76.2" r="12.2"/>
<circle id="e5607a81-7f0e-4105-ad7c-335322d1da37" class="st9" cx="438.9" cy="161.2" r="8"/>
<path class="st10" d="M402.9,63.3c6.7-0.2,12.4,5,12.6,11.8s-5,12.4-11.8,12.6l0,0c6.3-2.4,9.6-9.4,7.2-15.7
	c-1.8-4.9-6.6-8.1-11.9-8C400.3,63.6,401.6,63.4,402.9,63.3z"/>
<path class="st10" d="M437,61.2c6.7,18.2-9.3,53.6,2.2,88.4c-2.5-0.5-5-1.1-7.4-1.9c-9.3-33.6,5.3-67.3-1.1-84.8
	c-5.8-15.7-23-23.1-39.2-20.4C409.3,36.3,430.5,43.4,437,61.2z"/>
<path class="st9" d="M61.7,230c-19.2-0.5-35.1,14.7-35.6,33.9s13.2,59.5,33,75c5.7-33.5,34.1-55.5,36.5-73.3
	C98.2,246.6,80.8,230.5,61.7,230z"/>
<ellipse id="bacd35f3-e339-4cac-822d-9d99fa991c5b" transform="matrix(9.053437e-02 -0.9959 0.9959 9.053437e-02 -207.5781 295.6924)" class="st1" cx="58.1" cy="261.5" rx="11.3" ry="11.3"/>
<circle id="b2bbbf75-ebb5-482c-96b6-874581e74278" class="st9" cx="53.8" cy="348.3" r="7.4"/>
<path class="st10" d="M66.7,252.6c5.6,2.7,8,9.5,5.2,15.1c-2.7,5.6-9.5,8-15.1,5.2l0,0c6.2,0.8,11.9-3.6,12.7-9.8
	c0.6-4.8-1.9-9.5-6.3-11.7C64.4,251.7,65.6,252.1,66.7,252.6z"/>
<path class="st10" d="M95.6,265.6c-2.4,17.8-30.8,39.9-36.5,73.3c-1.9-1.5-3.6-3.1-5.2-4.8c6.9-31.6,33.5-52.8,35.9-70
	c2.1-15.4-8.8-28.9-23.3-33.7C83.6,233.2,98,248.2,95.6,265.6z"/>
<path class="st5" d="M193.5,82.4c-5.4,0.4-9.5,4.9-9.3,10.3c0,0.5,0.1,1.1,0.2,1.6L155,112.8l16.3,7.2l25.4-18.7
	c4.3-1.3,7.2-5.4,7-9.9c-0.3-5.2-4.7-9.3-10-9l0,0C193.6,82.4,193.5,82.4,193.5,82.4z"/>
<path class="st8" d="M165.1,104.4l7.3,15L143.6,138c-4.2,2.7-9.4,3.1-13.9,0.9l0,0c-5.5-2.6-8.6-8.6-7.6-14.6l9.3-53.4
	c1.3-7.8,8.4-13.1,16.3-12.3l0,0c7.7,0.8,13.3,7.8,12.4,15.5l0,0c0,0.1,0,0.3-0.1,0.4c-0.1,0.5-0.2,1-0.3,1.5l-10.2,38L165.1,104.4z
	"/>
<rect x="126" y="127.7" class="st4" width="41.2" height="41.2"/>
<polygon class="st5" points="264.9,249 280.6,243.7 289.4,286.6 278.7,290.2 "/>
<polygon class="st5" points="238.2,245.7 253.8,240.1 263.6,282.7 253,286.5 "/>
<path class="st6" d="M127.4,179.7c-8.3,55,101.7,22.5,101.7,22.5l34.5,47.6l20.2-3.7c0,0-9.1-28.6-25.3-66.8
	c-7.2-17-89-12.8-89-12.8l-1.7-13.3l-46.8-0.9L127.4,179.7z"/>
<path class="st6" d="M206.9,205.9l25.4-15.8c18.6,37.2,24.1,53.3,24.1,53.3l-17.6,4.9L206.9,205.9z"/>
<path class="st8" d="M151,60.8l-8.3-10.7l-11.8-0.5l-1.2,10l-5.9,2.7c-5.9,22.2-6.8,45.5-2.6,68.1l0,0l0,0c1.6,1.5,2.3,3.8,1.7,5.9
	l-0.4,1.5v0.1c1.2,2,1.7,4.3,1.2,6.6l0,0l-2.8,5c-3.8,6.8-1.4,15.4,5.4,19.2c0.7,0.4,1.4,0.7,2.1,1c17.2,6.2,33.3,8.6,45.3-8.9
	l3.8-61L151,60.8z"/>
<circle class="st4" cx="142.3" cy="31.1" r="21.9"/>
<path class="st6" d="M131.3,4.7c-9.3,0.2-16.6,8.8-16.4,19.2c-6.9,7.2-8.5,42.3-2.8,51.7c10.5,1.2,16.8-24.7,26-21l1.2-5.7l2.7,7.4
	c2.3,1.1,4.7,2.3,7,3.5c1.7-7.6,1.2-14.9-3.2-21.4c-3.9-5.7,5.7-12.5,12.5-11.5l0,0l-0.1-5.2L160,27c2.7,2,5.6,1.3,8.7-0.2l0,0
	C173.6,1.2,135.5-5.8,131.3,4.7z"/>
<path class="st6" d="M273.9,297.4l7-0.9l0.4-6.8l4.1,6.2l18.6-2.4c2.3-0.3,3.9-2.4,3.6-4.7c-0.2-1.4-1-2.6-2.3-3.2l-16.2-8.3
	l-0.9-6.7l-15.5,3L273.9,297.4z"/>
<path class="st6" d="M255.3,297.5l6.4-3.1l-1.8-6.6l5.8,4.6l16.9-8.2c2.1-1,3-3.5,2-5.6c-0.6-1.2-1.8-2.1-3.2-2.3l-18-2.8l-2.9-6.1
	l-13.8,7.7L255.3,297.5z"/>
<path class="st0" d="M159.3,151.6h7.8v-60h-6.3c-0.6,0-1.2,0.5-1.2,1.2L159.3,151.6z"/>
<path class="st1" d="M166.4,109.2h83.7v42.7h-83.7V109.2z"/>
<path class="st2" d="M166.6,118.9v-9.6H250v42.4h-50.6C181.3,151.8,166.6,137.1,166.6,118.9z"/>
<path class="st2" d="M160.6,93.3L160.6,93.3c0,0.1,0.1,0.2,0.1,0.3l2.9,11.1l3.1,5.9h83.1v-1.5l-4.7-4.5L239.6,94
	c-0.2-0.5-0.6-0.9-0.9-1.2l0,0c-0.9-0.8-2-1.3-3.2-1.3h-73.8c-0.6,0-1.2,0.5-1.2,1.2C160.5,92.9,160.5,93.1,160.6,93.3z"/>
<path class="st3" d="M166.4,109.2h83.7v42.7h-83.7V109.2z M249.5,151.3H167v-41.5h82.5V151.3z"/>
<polygon class="st0" points="162,99 163.6,104.7 245.1,104.7 242.5,100 "/>
<rect x="233.7" y="131.6" class="st1" width="13.3" height="0.7"/>
<rect x="233.7" y="134.2" class="st1" width="13.3" height="0.7"/>
<rect x="233.7" y="136.8" class="st1" width="13.3" height="0.7"/>
<circle class="st1" cx="241.9" cy="118.6" r="4.8"/>
<path class="st9" d="M203.2,46c11.8-0.3,21.5,9,21.8,20.8s-8.1,36.5-20.2,46c-3.5-20.5-20.9-34-22.4-44.9
	C180.8,56.1,191.4,46.3,203.2,46z"/>
<circle id="fecde2e6-4a2c-4b09-ace7-bfa7eb0316c1" class="st1" cx="205.3" cy="65.3" r="6.9"/>
<circle id="ad96ff4a-d650-41fb-aeb3-38eefe479f45" class="st9" cx="208" cy="118.5" r="4.5"/>
<path class="st10" d="M200.1,59.8c-3.4,1.7-4.9,5.8-3.2,9.3c1.7,3.4,5.8,4.9,9.3,3.2c-3.8,0.5-7.3-2.2-7.8-6c-0.4-3,1.2-5.8,3.9-7.1
	C201.4,59.3,200.7,59.5,200.1,59.8z"/>
<path class="st10" d="M182.4,67.8c1.5,10.9,18.9,24.4,22.4,44.9c1.1-0.9,2.2-1.9,3.2-2.9c-4.2-19.4-20.5-32.3-22-42.9
	c-1.3-9.4,5.4-17.7,14.2-20.6C189.7,48,180.9,57.1,182.4,67.8z"/>
<path class="st5" d="M190.8,103.7c-5.4-0.4-10.1,3.6-10.6,8.9c0,0.5,0,1.1,0,1.6l-31.7,14.3l15.1,9.4l27.8-15
	c4.5-0.7,7.9-4.3,8.3-8.8c0.5-5.2-3.4-9.9-8.6-10.3C191,103.7,190.9,103.7,190.8,103.7z"/>
<path class="st8" d="M159.7,121.6l5.1,15.9l-31.1,14.4c-4.5,2.1-9.8,1.7-13.9-1l0,0c-5.1-3.4-7.3-9.7-5.5-15.6L131,83.7
	c2.4-7.5,10.2-11.8,17.8-9.9l0,0c7.5,1.9,12.1,9.5,10.2,17.1l0,0c0,0.1-0.1,0.3-0.1,0.4c-0.1,0.5-0.3,1-0.5,1.5L143,129L159.7,121.6
	z"/>
</svg>
