<?xml version="1.0" encoding="UTF-8"?>
<svg width="207px" height="51px" viewBox="0 0 207 51" version="1.1" xmlns="http://www.w3.org/2000/svg" xmlns:xlink="http://www.w3.org/1999/xlink">
    <title>OpenHumanity_logo</title>
    <defs>
        <polygon id="path-1" points="0.20327313 0.257051282 42.9608038 0.257051282 42.9608038 49.3589744 0.20327313 49.3589744"></polygon>
        <polygon id="path-3" points="0 49.4224359 206.643269 49.4224359 206.643269 0.320512821 0 0.320512821"></polygon>
    </defs>
    <g id="HOME" stroke="none" stroke-width="1" fill="none" fill-rule="evenodd">
        <g id="OpenHumanity_logo">
            <path d="M35.4039103,31.2873397 C35.1491026,31.1565705 34.9510256,30.9998397 34.81,30.8152244 C34.6686538,30.630609 34.56,30.3838141 34.484359,30.0748397 C34.4080769,29.7649038 34.3622436,29.4825321 34.3458974,29.2280449 C34.3295513,28.9729167 34.3215385,28.6552885 34.3215385,28.2754808 L34.3215385,15.3338141 C34.3215385,14.9540064 34.3295513,14.6392628 34.3458974,14.3895833 C34.3622436,14.1395833 34.4080769,13.8604167 34.484359,13.5511218 C34.56,13.2415064 34.6686538,12.9975962 34.81,12.8184295 C34.9510256,12.6392628 35.1491026,12.4876603 35.4039103,12.3623397 C35.471859,12.3293269 35.5529487,12.3123397 35.6282692,12.2879808 L35.4923718,7.98766026 C34.3503846,8.04823718 33.3449359,8.22964744 32.4898077,8.54535256 C31.4317949,8.93605769 30.5910897,9.52195513 29.9670513,10.3030449 C29.3426923,11.0844551 28.8923718,12.0049679 28.6154487,13.0629808 C28.3391667,14.1209936 28.2007051,15.3767628 28.2007051,16.8315705 L28.2007051,26.794391 C28.2007051,28.2376603 28.3391667,29.4911859 28.6154487,30.5546474 C28.8923718,31.618109 29.3426923,32.54375 29.9670513,33.330609 C30.5910897,34.1171474 31.4317949,34.7084936 32.4898077,35.1043269 C33.5484615,35.5004808 34.8260256,35.6988782 36.3241026,35.6988782 C36.3394872,35.6988782 36.3532692,35.6972756 36.3686538,35.6972756 L36.235,31.4738782 C35.9170513,31.4633013 35.6359615,31.405609 35.4039103,31.2873397" id="Fill-1" fill="#1C75BC"></path>
            <path d="M53.8866346,32.1170513 L53.9193269,32.1170513 C54.3747756,32.1071154 54.7113141,31.9055128 54.9286218,31.5148077 C55.1452885,31.1029487 55.2590705,30.5769872 55.2702885,29.9362821 L55.2702885,21.0148077 C55.2702885,20.4289103 55.1507372,19.9404487 54.9119551,19.5500641 C54.6949679,19.2023077 54.3856731,19.0285897 53.984391,19.0285897 L53.8379167,19.0285897 C53.4254167,19.0616026 52.9529808,19.273141 52.42125,19.6638462 L52.42125,31.6455769 C52.9424038,31.9603205 53.4305449,32.1170513 53.8866346,32.1170513 L53.8866346,32.1170513 Z M46.9840705,41.6728205 L46.9840705,16.0497436 L52.42125,16.0497436 L52.42125,17.4660897 C53.745609,16.3048718 55.0805449,15.7244231 56.4260577,15.7244231 L56.6052244,15.7244231 C57.9943269,15.7673718 59.0279808,16.3212179 59.7065064,17.3846795 C60.384391,18.4487821 60.7238141,19.7946154 60.7238141,21.4225 L60.7238141,29.6433333 C60.7238141,31.4773077 60.3574679,32.9398077 59.6250962,34.0301923 C58.8924038,35.1205769 57.8478526,35.6667308 56.4911218,35.6667308 C55.1452885,35.6667308 53.7888782,35.0699359 52.42125,33.8757051 L52.42125,41.6728205 L46.9840705,41.6728205 Z" id="Fill-3" fill="#1C75BC"></path>
            <path d="M68.0304808,23.4893269 L70.6840064,23.4893269 L70.6840064,21.5684936 C70.6840064,20.8524679 70.5644551,20.3450962 70.3256731,20.0466987 C70.0872115,19.7483013 69.7452244,19.5983013 69.3003526,19.5983013 C68.8769551,19.5983013 68.5596474,19.7720192 68.348109,20.1197756 C68.1365705,20.4672115 68.0304808,21.0585577 68.0304808,21.8938141 L68.0304808,23.4893269 Z M69.3166987,35.6665705 C67.1897756,35.6665705 65.5452244,35.0966987 64.3840064,33.9572756 C63.2224679,32.8175321 62.6423397,31.2111218 62.6423397,29.1380449 L62.6423397,22.2358013 C62.6423397,20.1627244 63.2256731,18.5595192 64.3920192,17.4252244 C65.5586859,16.291891 67.2003526,15.7242628 69.3166987,15.7242628 C71.4545192,15.7242628 73.0580449,16.2749038 74.1272756,17.3768269 C75.1961859,18.478109 75.7304808,20.0983013 75.7304808,22.2358013 L75.7304808,26.0290705 L68.0304808,26.0290705 L68.0304808,29.4149679 C68.0304808,30.1960577 68.1282372,30.7851603 68.3234295,31.1813141 C68.5192628,31.578109 68.8497115,31.7755449 69.3166987,31.7755449 C70.2282372,31.7755449 70.6840064,31.1511859 70.6840064,29.903109 L70.6840064,28.6175321 L75.7304808,28.6175321 L75.7304808,29.7409295 C75.7304808,31.6617628 75.1692628,33.1297115 74.0455449,34.1441346 C72.9224679,35.1591987 71.3458654,35.6665705 69.3166987,35.6665705 L69.3166987,35.6665705 Z" id="Fill-5" fill="#1C75BC"></path>
            <path d="M77.8770192,35.324391 L77.8770192,16.0497115 L83.3141987,16.0497115 L83.3141987,17.9705449 C84.8446474,16.4734295 86.4016987,15.724391 87.9866346,15.724391 C89.1260577,15.724391 89.9997756,16.1420192 90.6074679,16.9779167 C91.2151603,17.8134936 91.5190064,18.8878526 91.5190064,20.2013141 L91.5190064,35.324391 L86.0818269,35.324391 L86.0818269,21.0147756 C86.0818269,20.5266346 86.0055449,20.1657372 85.8539423,19.9320833 C85.7020192,19.6990705 85.4196474,19.5884936 85.0074679,19.5984295 C84.5516987,19.5984295 83.9872756,19.8215064 83.3141987,20.2657372 L83.3141987,35.324391 L77.8770192,35.324391 Z" id="Fill-7" fill="#1C75BC"></path>
            <polygon id="Fill-9" fill="#1C75BC" points="94.1974679 35.324391 94.1974679 8.33400641 100.171827 8.33400641 100.171827 19.2407372 104.323109 19.2407372 104.323109 8.33400641 110.297468 8.33400641 110.297468 35.324391 104.323109 35.324391 104.323109 23.5054808 100.171827 23.5054808 100.171827 35.324391"></polygon>
            <g id="Group-13" transform="translate(0.000000, 0.063462)">
                <mask id="mask-2" fill="white">
                    <use xlink:href="#path-1"></use>
                </mask>
                <g id="Clip-12"></g>
                <path d="M29.9624038,1.51567308 C28.0197756,1.75541667 26.1290705,2.23650641 24.2832372,2.88778846 C23.9197756,3.0163141 23.6178526,3.02560897 23.3428526,2.56150641 C26.7114423,1.56663462 30.1005449,1.11951923 33.4268269,1.20669872 C32.3672115,1.2986859 31.1598397,1.36791667 29.9624038,1.51567308 M17.804391,24.3736859 C18.0495833,23.5730449 18.3723397,22.7958013 18.6681731,22.0111859 C18.7499038,21.7954808 18.8582372,21.5897115 18.9540705,21.3791346 C18.9771474,21.3855449 19.0002244,21.3919551 19.0233013,21.3983654 C19.0233013,21.6714423 19.0515064,21.9480449 19.0191346,22.2172756 C18.7604808,24.3611859 19.1534295,26.4095833 19.890609,28.4127885 C19.9454167,28.5615064 19.9127244,28.7422756 19.9204167,28.9079808 C19.7499038,28.9070192 19.5694551,28.9419551 19.4101603,28.8990064 C18.578109,28.6743269 17.9716987,28.3586218 17.965609,27.2656731 C17.9604808,26.3095833 17.5047115,25.3509295 17.804391,24.3736859 M14.5694551,5.42080128 C13.2063141,6.02721154 11.8319551,6.63073718 10.7858013,7.73009615 C10.1938141,8.35253205 9.71592949,9.08394231 9.19157051,9.76983974 C9.11016026,9.87625 9.05375,10.0015705 8.98612179,10.1182372 C8.95759615,10.0983654 8.92907051,10.0788141 8.90054487,10.0592628 C9.94894231,6.7986859 12.5870833,5.51983974 15.6085577,4.71887821 C15.6303526,4.75317308 15.6521474,4.78778846 15.6736218,4.82208333 C15.3063141,5.02336538 14.9508654,5.25125 14.5694551,5.42080128 M42.2999038,5.99419872 C41.6745833,4.3611859 40.6521474,3.04195513 39.2341987,2.03490385 C37.5325962,0.82625 35.5659295,0.41375 33.5393269,0.299967949 C31.0274679,0.158942308 28.5361218,0.365352564 26.0688141,0.904455128 C24.3136859,1.28778846 22.603109,1.79035256 20.9508654,2.49163462 C20.8239423,2.54548077 20.7249038,2.66599359 20.6127244,2.75541667 C20.7136859,2.85733974 20.7976603,2.98842949 20.9175321,3.05637821 C21.8053526,3.55862179 22.5691346,4.20349359 23.1813141,5.01887821 C23.3579167,5.25413462 23.4838782,5.52785256 23.6332372,5.78362179 C23.49125,5.79003205 23.4367628,5.74836538 23.3845192,5.70413462 C23.1630449,5.51791667 22.9454167,5.32689103 22.7204167,5.14483974 C20.7925321,3.58426282 18.5848397,3.00125 16.1454167,3.33842949 C14.6075962,3.55092949 13.1688141,4.09964744 11.753109,4.7361859 C9.8063141,5.6111859 8.43387821,6.99836538 7.80054487,9.03778846 C7.45439103,10.151891 7.22073718,11.3031731 6.9813141,12.4470833 C6.78387821,13.3890705 6.6313141,14.3419551 6.49669872,15.2954808 C6.34894231,16.3432372 6.24798077,17.3974038 6.11945513,18.4477244 C6.04317308,19.0740064 5.95310897,19.6986859 5.85951923,20.3970833 C5.79285256,20.2765705 5.75759615,20.2217628 5.73099359,20.1627885 C4.85663462,18.2246474 4.10022436,16.2403526 3.73355769,14.1419551 C3.61400641,13.4563782 3.76240385,12.7240064 3.78419872,12.013109 C3.78772436,11.9002885 3.77009615,11.7868269 3.76208333,11.6736859 C3.65086538,11.7092628 3.49798077,11.7105449 3.43483974,11.7861859 C3.08612179,12.2050962 2.75535256,12.63875 2.42810897,13.0749679 C2.33772436,13.1951603 2.28163462,13.3413141 2.17041667,13.5493269 C2.08772436,13.3217628 2.03772436,13.1954808 1.99669872,13.0663141 C1.97201923,12.988109 1.95278846,12.9060577 1.94605769,12.8246474 C1.84733974,11.6288141 1.79830128,10.4464423 2.12490385,9.25926282 C2.69509615,7.18778846 3.98548077,5.85125 5.99926282,5.15028846 C7.22041667,4.72560897 8.47073718,4.63298077 9.74605769,4.65349359 C9.99349359,4.65766026 10.2950962,4.61535256 10.4822756,4.47528846 C11.40375,3.7861859 12.4216987,3.32945513 13.5348397,3.06310897 C13.6925321,3.02528846 13.8348397,2.9236859 14.0790705,2.80605769 C13.8841987,2.72913462 13.8040705,2.68073718 13.7181731,2.6663141 C12.6742628,2.49291667 11.629391,2.32336538 10.5845192,2.15541667 C8.82746795,1.87304487 7.09669872,2.01727564 5.39221154,2.5038141 C3.5011859,3.04355769 2.03003205,4.12849359 1.11785256,5.89708333 C0.0742628205,7.92016026 -0.00554487179,10.0717628 0.522980769,12.2188782 C0.896057692,13.7355449 1.39060897,15.2461218 2.03451923,16.6669551 C3.02233974,18.8470833 4.17650641,20.9522115 5.2813141,23.0778526 C5.48740385,23.4743269 5.56464744,23.8544551 5.54701923,24.2993269 C5.41977564,27.5179167 5.10375,30.7272115 5.32842949,33.9611859 C5.46080128,35.8714423 5.46304487,37.7897115 5.86849359,39.6701603 C6.06528846,40.5823397 6.23900641,41.51375 6.57009615,42.3800962 C7.27939103,44.2365064 8.40695513,45.825609 9.94445513,47.1041346 C11.5620833,48.4493269 13.4191346,49.20125 15.5213782,49.3429167 C17.1216987,49.450609 18.6015064,49.0089423 20.0265064,48.3400321 C22.0063141,47.4108654 23.5986218,46.0416346 24.5752244,44.0624679 C25.6252244,41.9342628 25.6114423,39.6384295 25.4643269,37.3406731 C25.44125,36.9813782 25.278109,36.9406731 24.9649679,37.1515705 C23.7652885,37.9599038 22.554391,38.7477244 21.1960577,39.2759295 C21.0809936,39.3208013 20.9845192,39.413109 20.790609,39.5425962 C21.0447756,39.6361859 21.1934936,39.6900321 21.3415705,39.7454808 C21.9700962,39.9820192 22.6088782,40.1958013 23.2226603,40.4659936 C23.5306731,40.601891 23.7957372,40.8720833 23.6999038,41.2528526 C23.5386859,41.8919551 23.3784295,42.5406731 23.1213782,43.1445192 C22.3598397,44.9333013 20.9277885,46.0605449 19.2015064,46.8038141 C17.7688141,47.4208013 16.3505449,47.23875 15.4188141,45.7358654 C14.2797115,43.8986859 13.5707372,41.9300962 13.5675321,39.7416346 C13.5665705,39.1550962 13.5319551,39.1413141 12.9553526,39.1502885 C12.0611218,39.1640705 11.1646474,39.1958013 10.2733013,39.1454808 C9.92426282,39.125609 9.55791667,38.95125 9.2511859,38.7627885 C8.89157051,38.5422756 8.87971154,38.2047756 9.21913462,37.9470833 C9.79830128,37.5073397 10.3819551,37.0541346 11.0223397,36.7185577 C12.5476603,35.9185577 13.5457372,34.7063782 14.0848397,33.0919551 C14.5091987,31.8208013 14.6457372,30.5115064 14.5896474,29.1775321 C14.5819551,28.9929167 14.5886859,28.8076603 14.5886859,28.6227244 C14.6434936,28.6150321 14.6983013,28.6073397 14.7534295,28.5993269 C14.9502244,29.4528526 15.1473397,30.3060577 15.3518269,31.1919551 C15.4547115,31.1368269 15.5200962,31.1150321 15.5691346,31.0740064 C16.703109,30.1179167 17.9707372,30.2095833 19.2255449,30.7038141 C19.8133654,30.9352244 20.4989423,31.2249679 20.9396474,30.5980449 C21.1255449,30.3339423 21.0726603,29.8179167 21.0502244,29.5159936 C21.0165705,29.0653526 20.9216987,28.6220833 20.8550321,28.1759295 C20.6700962,26.9400321 20.366891,25.7079808 20.3322756,24.4679167 C20.3024679,23.3980449 20.5075962,22.3044551 20.7348397,21.2486859 C21.0175321,19.9336218 21.4284295,18.6458013 21.7867628,17.3470833 C21.8646474,17.0647115 21.954391,16.7858654 22.0386859,16.5050962 C21.9841987,16.4688782 21.9300321,16.4326603 21.8755449,16.3964423 C20.4354808,17.6153526 18.9950962,18.8345833 17.5236218,20.0797756 C17.4627244,19.9525321 17.4005449,19.8829808 17.4008654,19.81375 C17.4063141,18.775609 17.4723397,17.7438782 17.9444551,16.7941987 C17.9954167,16.6916346 18.2380449,16.6134295 18.3733013,16.6358654 C18.9502244,16.7310577 19.4175321,16.5804167 19.6739423,16.1656731 C19.9207372,15.7666346 19.8463782,15.1663141 19.4633654,14.7647115 C19.2694551,14.5611859 19.2938141,14.4316987 19.4874038,14.2570192 C20.2745833,13.5458013 21.1989423,13.2611859 22.2370833,13.4134295 C23.2540705,13.5624679 23.5194551,13.8550962 23.4957372,14.8826603 C23.4720192,15.926891 23.3627244,16.9691987 23.2944551,18.0124679 C23.2845192,18.1608654 23.2928526,18.3105449 23.2928526,18.4595833 L23.4098397,18.4967628 C23.5258654,18.3900321 23.6547115,18.2941987 23.7563141,18.1752885 C24.6611218,17.1111859 25.3466987,15.9099038 25.7200962,14.5727244 C26.1970192,12.8640705 26.5547115,11.1224038 26.9915705,9.40221154 C27.3441346,8.01439103 28.0226603,6.83137821 29.2364423,5.99548077 C29.6620833,5.70253205 30.0688141,5.36791667 30.4329167,5.00157051 C31.7117628,3.71535256 33.240609,3.14099359 35.0207372,3.48971154 C36.7149679,3.82144231 38.1495833,4.70637821 39.3358013,5.94900641 C40.8072756,7.49003205 41.0008654,9.54804487 40.6809936,11.5653526 C40.653109,11.7400321 40.5870833,11.9086218 40.5361218,12.0797756 C40.4133654,11.9932372 40.2704167,11.925609 40.1720192,11.8172756 C39.8777885,11.4925962 39.6236218,11.1288141 39.3091987,10.8265705 C39.1079167,10.6326603 38.8277885,10.5208013 38.4883654,10.3147115 C38.5127244,10.5566987 38.5271474,10.6474038 38.5300321,10.73875 C38.5550321,11.5316987 38.7213782,12.3525321 38.5733013,13.1118269 C37.6079167,18.0586218 34.5422115,22.3794551 30.3393269,25.1278526 C28.541891,26.3031731 26.6117628,27.1990064 24.5681731,27.8560577 C24.45375,27.8929167 24.3633654,28.0050962 24.2617628,28.0823397 C24.4492628,28.1650321 24.5851603,28.17625 24.7188141,28.163109 C26.5896474,27.9810577 28.3672115,27.4704808 30.0441346,26.6217628 C33.0534295,25.0980449 35.3890064,22.8025321 37.3534295,20.1147115 C38.5229808,18.5147115 39.7694551,16.8659936 40.8364423,15.1284936 C41.6928526,13.7342628 42.4335577,12.2829808 42.9258654,10.7538141 C43.0450962,9.18426282 42.8646474,7.46919872 42.2999038,5.99419872" id="Fill-11" fill="#414042" mask="url(#mask-2)"></path>
            </g>
            <path d="M15.5530128,32.6167308 C15.3119872,33.7692949 14.6776923,34.7526282 13.7991667,35.5529487 C12.7315385,36.5250641 11.4658333,37.2045513 10.2395513,37.9433333 C10.0135897,38.0795513 9.84596154,38.3125641 9.65108974,38.5010256 C9.91455128,38.6337179 10.1776923,38.7664103 10.4408333,38.8991026 C12.4844231,38.6846795 14.3376282,38.1083974 16.0687179,37.0904487 C17.9591026,35.9789103 19.0382692,34.321859 19.5183974,32.2208974 C19.6180769,31.785641 19.4924359,31.5202564 19.1251282,31.248141 C17.9010897,30.3414103 15.8789744,31.0577564 15.5530128,32.6167308" id="Fill-14" fill="#D1D3D4"></path>
            <path d="M4.48237179,32.8796474 C4.47115385,32.7908654 4.36826923,32.7139423 4.30801282,32.6315705 C4.24551282,32.69375 4.1599359,32.7447115 4.12467949,32.8197115 C3.57916667,33.9741987 2.86282051,35.0120192 1.9724359,35.9241987 C1.37724359,36.5341346 0.750961538,37.1133013 0.147435897,37.7145833 C0.071474359,37.7902244 0.0477564103,37.918109 0,38.0216346 C0.122115385,38.0572115 0.247435897,38.1293269 0.366025641,38.1197115 C0.555448718,38.1043269 0.742307692,38.0418269 0.926602564,37.9866987 C2.21121795,37.5998397 3.43621795,37.0844551 4.50064103,36.2508013 C4.66666667,36.1209936 4.75416667,35.8911859 4.81153846,35.80625 C4.74551282,35.2671474 4.69294872,34.8732372 4.65,34.4786859 C4.59262821,33.9456731 4.54967949,33.4110577 4.48237179,32.8796474" id="Fill-16" fill="#D1D3D4"></path>
            <path d="M42.5994551,10.1978526 C41.3350321,8.70522436 39.2433654,7.95939103 36.3241346,7.95939103 C36.0363141,7.95939103 35.7638782,7.97317308 35.4924038,7.98759615 L35.6283013,12.2879167 C35.8356731,12.2209295 36.0609936,12.1757372 36.3241346,12.1757372 C36.6818269,12.1757372 36.9914423,12.2379167 37.2516987,12.3625962 C37.5122756,12.4879167 37.7132372,12.6424038 37.8542628,12.8270192 C37.9949679,13.0116346 38.1065064,13.2529808 38.1879167,13.5513782 C38.2690064,13.8497756 38.320609,14.1318269 38.3424038,14.3978526 C38.3638782,14.6638782 38.3750962,14.9754167 38.3750962,15.33375 L38.3750962,28.2754167 C38.3750962,28.6443269 38.3638782,28.9619551 38.3424038,29.2279808 C38.320609,29.4940064 38.2690064,29.7786218 38.1879167,30.0824679 C38.1065064,30.3859936 37.9949679,30.63375 37.8542628,30.8228526 C37.7132372,31.0135577 37.5122756,31.170609 37.2516987,31.2949679 C36.9914423,31.4202885 36.6818269,31.4827885 36.3241346,31.4827885 C36.2920833,31.4827885 36.2661218,31.4750962 36.2350321,31.4738141 L36.3686859,35.6975321 C39.2638782,35.6895192 41.3414423,34.9395192 42.5994551,33.4443269 C43.8635577,31.9411218 44.49625,29.7241346 44.49625,26.7943269 L44.49625,16.8318269 C44.49625,13.9010577 43.8635577,11.6895192 42.5994551,10.1978526" id="Fill-18" fill="#1C75BC"></path>
            <path d="M116.465865,35.6729808 C115.404647,35.6729808 114.590545,35.2838782 114.024519,34.5053526 C113.458494,33.7271474 113.175801,32.7265064 113.175801,31.503109 L113.175801,17.4175321 L118.239904,17.4175321 L118.239904,30.8966987 C118.239904,31.34125 118.318109,31.6777885 118.47484,31.9047115 C118.63125,32.1322756 118.896955,32.2409295 119.270673,32.2313141 C119.67516,32.2213782 120.155288,32.0393269 120.711378,31.6851603 L120.711378,17.4175321 L125.775481,17.4175321 L125.775481,35.3694551 L120.711378,35.3694551 L120.711378,33.7165705 C119.326122,35.0207372 117.911058,35.6729808 116.465865,35.6729808" id="Fill-20" fill="#1C75BC"></path>
            <path d="M127.702179,35.3695513 L127.702179,17.4176282 L132.660513,17.4176282 L132.660513,18.8727564 C133.863077,17.6804487 135.288397,17.0836538 136.935833,17.0836538 C137.643526,17.0836538 138.262756,17.2657051 138.793526,17.6298077 C139.323974,17.9935897 139.726218,18.5192308 139.999295,19.2067308 C141.263077,17.7913462 142.793205,17.0836538 144.592564,17.0836538 C145.644487,17.0836538 146.483269,17.4682692 147.109872,18.2358974 C147.736474,19.0041667 148.050577,20.0660256 148.050577,21.4201923 L148.050577,35.3695513 L143.076859,35.3695513 L143.076859,21.9362179 C143.076859,21.4407051 142.990962,21.0820513 142.819487,20.8589744 C142.646731,20.6371795 142.379103,20.5358974 142.015,20.5560897 C141.470128,20.5766026 140.918526,20.7935897 140.363397,21.2080128 L140.363397,21.4201923 L140.363397,35.3695513 L135.434872,35.3695513 L135.434872,21.9362179 C135.434872,21.450641 135.34641,21.0945513 135.169487,20.8669872 C134.992885,20.6394231 134.722372,20.5358974 134.35859,20.5560897 C133.852821,20.5766026 133.287115,20.8035256 132.660513,21.238141 L132.660513,35.3695513 L127.702179,35.3695513 Z" id="Fill-22" fill="#1C75BC"></path>
            <path d="M155.37484,32.2008333 C155.617468,32.2008333 155.867468,32.1171795 156.125481,31.9501923 C156.383494,31.7838462 156.592468,31.5841667 156.754647,31.3511538 L156.754647,26.4392949 C155.945353,26.8434615 155.28125,27.4120513 154.760737,28.1450641 C154.239583,28.8777564 153.979647,29.5928205 153.979647,30.2899359 C153.979647,30.8764744 154.111058,31.3412179 154.374199,31.6851282 C154.636699,32.0287179 154.970353,32.2008333 155.37484,32.2008333 M153.539904,35.6880128 C152.266827,35.6678205 151.253045,35.2158974 150.500481,34.330641 C149.746955,33.4466667 149.370353,32.4383333 149.370353,31.305641 C149.370353,30.7200641 149.44375,30.1713462 149.590224,29.6607692 C149.736699,29.1508333 149.913942,28.7082051 150.120994,28.3341667 C150.328365,27.9601282 150.619071,27.5966667 150.993109,27.2425 C151.366506,26.8889744 151.705609,26.6033974 152.008814,26.3857692 C152.31234,26.1687821 152.713942,25.9367308 153.213942,25.6886538 C153.714583,25.4405769 154.116186,25.2566026 154.419712,25.1351282 C154.722596,25.0136538 155.134776,24.8546795 155.655288,24.6575641 C156.175481,24.4604487 156.542468,24.3165385 156.754647,24.2255128 L156.754647,22.4511538 C156.754647,21.9460256 156.679006,21.5569231 156.527083,21.2838462 C156.375481,21.0107692 156.096955,20.8742308 155.693429,20.8742308 C155.005609,20.8742308 154.642147,21.3495513 154.601763,22.2995513 L154.480288,23.6187821 L149.74984,23.4367308 C149.74984,23.4062821 149.754327,23.3053205 149.764904,23.1338462 C149.77484,22.9617308 149.779968,22.8662179 149.779968,22.8457051 C149.931891,20.8848077 150.540545,19.4396154 151.607212,18.5091667 C152.673237,17.579359 154.196635,17.1139744 156.178365,17.1139744 C157.947276,17.1139744 159.294071,17.604359 160.219071,18.5851282 C161.14375,19.5655769 161.606891,20.8742308 161.606891,22.5120513 L161.606891,30.8665385 C161.606891,32.0187821 161.71234,33.5200641 161.92484,35.3694231 L157.421635,35.3694231 C157.158494,33.9139744 157.017147,33.0649359 156.996955,32.8223077 C156.754647,33.6408974 156.339904,34.3235897 155.754006,34.8687821 C155.167788,35.4149359 154.429647,35.6880128 153.539904,35.6880128" id="Fill-24" fill="#1C75BC"></path>
            <path d="M163.397596,35.3695513 L163.397596,17.4176282 L168.461378,17.4176282 L168.461378,19.2067308 C169.886699,17.8115385 171.33734,17.1141026 172.813301,17.1141026 C173.87484,17.1141026 174.687981,17.5035256 175.254006,18.2814103 C175.820673,19.0602564 176.103686,20.0608974 176.103686,21.2836538 L176.103686,35.3695513 L171.038942,35.3695513 L171.038942,22.0416667 C171.038942,21.5871795 170.968429,21.2512821 170.826763,21.0336538 C170.684776,20.8160256 170.422276,20.713141 170.038622,20.7230769 C169.613622,20.7230769 169.087981,20.9301282 168.461378,21.3445513 L168.461378,35.3695513 L163.397596,35.3695513 Z" id="Fill-26" fill="#1C75BC"></path>
            <mask id="mask-4" fill="white">
                <use xlink:href="#path-3"></use>
            </mask>
            <g id="Clip-29"></g>
            <path d="M177.954487,35.3695513 L183.018269,35.3695513 L183.018269,17.4176282 L177.954487,17.4176282 L177.954487,35.3695513 Z M177.924038,14.4 L183.018269,14.4 L183.018269,10.836859 L177.924038,10.836859 L177.924038,14.4 Z" id="Fill-28" fill="#1C75BC" mask="url(#mask-4)"></path>
            <path d="M190.024423,35.5819551 C189.468333,35.5614423 188.965769,35.4829167 188.515769,35.3470192 C188.06609,35.2104808 187.684038,35.0358013 187.371538,34.8233013 C187.057436,34.6117628 186.785,34.3438141 186.552308,34.0200962 C186.320256,33.6966987 186.135321,33.3630449 185.998782,33.0194551 C185.862244,32.6758654 185.75359,32.2768269 185.673141,31.8216987 C185.592051,31.3665705 185.536603,30.9297115 185.506154,30.5101603 C185.475705,30.090609 185.460641,29.6178526 185.460641,29.0922115 L185.460641,20.7229808 L183.7475,20.7229808 L183.7475,17.4175321 L185.460641,17.4175321 L185.460641,11.9742628 L190.570577,11.9742628 L190.570577,17.4175321 L193.148462,17.4175321 L193.148462,20.7229808 L190.570577,20.7229808 L190.570577,30.0024679 C190.570577,30.9422115 191.110641,31.4271474 192.192692,31.4575962 C192.323782,31.4678526 192.473462,31.4678526 192.640449,31.4575962 C192.806474,31.4476603 192.943333,31.4351603 193.049423,31.4197756 C193.155513,31.4047115 193.261603,31.3867628 193.368013,31.3665705 C193.474103,31.3466987 193.532115,31.3361218 193.542051,31.3361218 L193.542051,35.3239423 C192.460321,35.5059936 191.459679,35.5970192 190.540128,35.5970192 C190.368013,35.5970192 190.196538,35.591891 190.024423,35.5819551" id="Fill-30" fill="#1C75BC" mask="url(#mask-4)"></path>
            <path d="M195.150224,40.5705449 L195.150224,37.0679808 C196.262404,37.0679808 197.030673,36.9564423 197.454712,36.7343269 C197.838686,36.5317628 198.031314,36.1327244 198.031314,35.5365705 C198.031314,35.4650962 198.026186,35.3945833 198.01625,35.3240705 C197.955673,34.8083654 197.733237,33.8683013 197.348622,32.5035577 C197.237724,32.0285577 196.539968,29.5141346 195.256314,24.9602885 C193.972981,20.4070833 193.274904,17.8926603 193.164006,17.4173397 L197.940288,17.4173397 L200.169135,27.7734295 L201.866891,17.4173397 L206.643173,17.4173397 L202.413045,36.3397756 C201.786442,39.1602885 199.647981,40.5705449 195.999263,40.5705449 L195.847981,40.5705449 L195.150224,40.5705449 Z" id="Fill-31" fill="#1C75BC" mask="url(#mask-4)"></path>
        </g>
    </g>
</svg>